<svg xmlns="http://www.w3.org/2000/svg" xmlns:xlink="http://www.w3.org/1999/xlink" viewBox="0 0 1000 1000"><defs><style>.cls-1{fill:none;}.cls-2{fill:#000031;}.cls-3{fill:#fff;}.cls-3,.cls-5{stroke:#231f20;stroke-miterlimit:10;}.cls-4,.cls-5{fill:#f7901e;}.cls-6{fill:url(#New_Pattern_Swatch_2);}</style><pattern id="New_Pattern_Swatch_2" data-name="New Pattern Swatch 2" width="288" height="288" patternTransform="translate(31.68 -54.18)" patternUnits="userSpaceOnUse" viewBox="0 0 288 288"><rect class="cls-1" width="288" height="288"/><rect class="cls-2" width="288" height="288"/><rect class="cls-3" x="-19.27" y="-41.28" height="1.03"/><g id="Layer_2" data-name="Layer 2"><g id="Layer_1-2" data-name="Layer 1-2"><path class="cls-4" d="M18.24-11.41c5.17,17.24.1,24.55-16.62,20.55,15,2.43,18.19-4.5,13.06-18.84C8.33-8.21,3.45-5.82,1.16-.16A11.45,11.45,0,0,1,0,11.16,11.48,11.48,0,0,1-1.1-.16c-2.29-5.66-7.17-8-13.52-9.54C-19.75,4.64-16.55,11.57-1.55,9.14c-16.72,4-21.79-3.31-16.62-20.55l-2-.95C-19.7-12.56-2.34-11,0-2.22-.42-3.93-2.7-12.71-8.46-11.81c.12,0,6.87-2.09,8.47,9.8a.36.36,0,0,0,0-.1A.36.36,0,0,1,0-2H0a.19.19,0,0,1,0,.08H0c1.59-12,8.37-9.91,8.48-9.87C2.31-12.78.15-2.51,0-2c2-9,19.72-10.61,20.21-10.4Z"/><path class="cls-4" d="M8.46,1.62a2.51,2.51,0,0,1,0-3.55,2.51,2.51,0,0,1,3.55,0,2.51,2.51,0,0,1,0,3.55A2.51,2.51,0,0,1,8.46,1.62Z"/><circle class="cls-4" cx="-10.19" cy="-0.16" r="2.51"/><polygon class="cls-4" points="0.03 -1.94 0.02 -1.94 0.02 -1.94 0.03 -1.94"/><polygon class="cls-4" points="0.03 -1.94 0.02 -1.94 0.02 -1.94 0.03 -1.94"/><polygon class="cls-4" points="0.03 -1.94 0.02 -1.94 0.02 -1.94 0.03 -1.94"/></g></g><g id="Layer_2-2" data-name="Layer 2"><g id="Layer_1-2-2" data-name="Layer 1-2"><path class="cls-4" d="M18.37,60.81c5.17,17.24.11,24.54-16.62,20.55,15,2.43,18.2-4.51,13.07-18.85C8.47,64,3.59,66.4,1.3,72.06A11.48,11.48,0,0,1,.17,83.38,11.45,11.45,0,0,1-1,72.06C-3.25,66.4-8.13,64-14.48,62.51c-5.13,14.34-1.93,21.28,13.06,18.85-16.72,4-21.79-3.31-16.61-20.55l-2-1C-19.56,59.65-2.2,61.2.1,70c-.39-1.72-2.66-10.49-8.42-9.59.11,0,6.86-2.09,8.47,9.8,0,0,0-.07,0-.1s0,.06,0,.1h0s0,.05,0,.07h0c1.59-12,8.37-9.9,8.48-9.86-6.2-1-8.37,9.3-8.48,9.85,2-9,19.73-10.61,20.22-10.4Z"/><path class="cls-4" d="M8.6,73.83a2.51,2.51,0,1,1,3.55,0A2.5,2.5,0,0,1,8.6,73.83Z"/><circle class="cls-4" cx="-10.05" cy="72.06" r="2.51"/><polygon class="cls-4" points="0.16 70.28 0.16 70.28 0.16 70.28 0.16 70.28"/><polygon class="cls-4" points="0.16 70.28 0.16 70.28 0.16 70.28 0.16 70.28"/><polygon class="cls-4" points="0.16 70.28 0.16 70.28 0.16 70.28 0.16 70.28"/></g></g><g id="Layer_2-3" data-name="Layer 2"><g id="Layer_1-2-3" data-name="Layer 1-2"><path class="cls-4" d="M18.35,132.81c5.18,17.24.11,24.55-16.61,20.55,15,2.43,18.19-4.5,13.06-18.84C8.45,136,3.57,138.4,1.28,144.06A11.47,11.47,0,0,1,.15,155.39,11.5,11.5,0,0,1-1,144.06c-2.29-5.66-7.17-8.05-13.52-9.54-5.13,14.34-1.93,21.27,13.07,18.84-16.73,4-21.79-3.31-16.62-20.55l-2-.95c.49-.2,17.85,1.34,20.15,10.14-.39-1.71-2.66-10.49-8.42-9.59.11,0,6.87-2.09,8.47,9.8a.44.44,0,0,0,0-.1.44.44,0,0,1,0,.1h0a.19.19,0,0,1,0,.08h0c1.59-12,8.37-9.91,8.48-9.87-6.2-1-8.36,9.3-8.47,9.85,2-9,19.72-10.61,20.21-10.4Z"/><path class="cls-4" d="M8.58,145.84a2.51,2.51,0,1,1,3.55,0A2.51,2.51,0,0,1,8.58,145.84Z"/><circle class="cls-4" cx="-10.07" cy="144.06" r="2.51"/><polygon class="cls-4" points="0.14 142.29 0.14 142.28 0.14 142.28 0.14 142.29"/><polygon class="cls-4" points="0.14 142.29 0.14 142.28 0.14 142.28 0.14 142.29"/><polygon class="cls-4" points="0.14 142.29 0.14 142.28 0.14 142.28 0.14 142.29"/></g></g><rect class="cls-5" x="-19.06" y="139.49" height="1.03"/><g id="Layer_2-4" data-name="Layer 2"><g id="Layer_1-2-4" data-name="Layer 1-2"><path class="cls-4" d="M18.26,205c5.18,17.24.11,24.55-16.61,20.56,15,2.42,18.19-4.51,13.06-18.85-6.35,1.49-11.23,3.88-13.52,9.54A11.47,11.47,0,0,1,.06,227.57a11.5,11.5,0,0,1-1.13-11.33c-2.29-5.66-7.17-8.05-13.52-9.54C-19.72,221-16.52,228-1.52,225.55c-16.73,4-21.79-3.32-16.62-20.56l-2-1c.49-.2,17.85,1.34,20.15,10.14-.39-1.71-2.66-10.48-8.42-9.59.11,0,6.87-2.09,8.47,9.8a.44.44,0,0,0,0-.1.44.44,0,0,1,0,.1H0s0,.05,0,.08h0c1.59-12,8.37-9.91,8.48-9.87-6.2-1-8.36,9.31-8.47,9.85,2-9,19.72-10.6,20.21-10.4Z"/><path class="cls-4" d="M8.49,218A2.51,2.51,0,1,1,12,218,2.51,2.51,0,0,1,8.49,218Z"/><circle class="cls-4" cx="-10.16" cy="216.24" r="2.51"/><polygon class="cls-4" points="0.05 214.47 0.05 214.46 0.05 214.46 0.05 214.47"/><polygon class="cls-4" points="0.05 214.47 0.05 214.46 0.05 214.46 0.05 214.47"/><polygon class="cls-4" points="0.05 214.47 0.05 214.46 0.05 214.46 0.05 214.47"/></g></g><g id="Layer_2-5" data-name="Layer 2"><g id="Layer_1-2-5" data-name="Layer 1-2"><path class="cls-4" d="M306.24-11.41c5.17,17.24.1,24.55-16.62,20.55,15,2.43,18.19-4.5,13.06-18.84-6.35,1.49-11.23,3.88-13.52,9.54A11.45,11.45,0,0,1,288,11.16,11.48,11.48,0,0,1,286.9-.16c-2.29-5.66-7.17-8-13.52-9.54-5.13,14.34-1.93,21.27,13.07,18.84-16.72,4-21.79-3.31-16.62-20.55l-2-.95c.49-.2,17.85,1.34,20.15,10.14-.38-1.71-2.66-10.49-8.42-9.59.12,0,6.87-2.09,8.47,9.8a.36.36,0,0,0,0-.1.36.36,0,0,1,0,.1h0a.19.19,0,0,1,0,.08h0c1.59-12,8.37-9.91,8.48-9.87-6.2-1-8.36,9.3-8.47,9.85,2-9,19.72-10.61,20.21-10.4Z"/><path class="cls-4" d="M296.46,1.62a2.51,2.51,0,0,1,0-3.55,2.51,2.51,0,0,1,3.55,0,2.51,2.51,0,0,1,0,3.55A2.51,2.51,0,0,1,296.46,1.62Z"/><circle class="cls-4" cx="277.81" cy="-0.16" r="2.51"/><polygon class="cls-4" points="288.02 -1.94 288.02 -1.94 288.02 -1.94 288.02 -1.94"/><polygon class="cls-4" points="288.02 -1.94 288.02 -1.94 288.02 -1.94 288.02 -1.94"/><polygon class="cls-4" points="288.02 -1.94 288.02 -1.94 288.02 -1.94 288.02 -1.94"/></g></g><g id="Layer_2-6" data-name="Layer 2"><g id="Layer_1-2-6" data-name="Layer 1-2"><path class="cls-4" d="M306.37,60.81c5.17,17.24.11,24.54-16.62,20.55,15,2.43,18.2-4.51,13.07-18.85-6.35,1.5-11.23,3.89-13.52,9.55a11.48,11.48,0,0,1-1.13,11.32A11.45,11.45,0,0,1,287,72.06c-2.29-5.66-7.17-8.06-13.52-9.55-5.13,14.34-1.93,21.28,13.06,18.85-16.72,4-21.79-3.31-16.61-20.55l-2-1c.49-.21,17.85,1.34,20.15,10.14-.39-1.72-2.66-10.49-8.42-9.59.11,0,6.86-2.09,8.47,9.8,0,0,0-.07,0-.1s0,.06,0,.1h0s0,.05,0,.07h0c1.59-12,8.37-9.9,8.48-9.86-6.2-1-8.37,9.3-8.48,9.85,2-9,19.73-10.61,20.22-10.4Z"/><path class="cls-4" d="M296.6,73.83a2.51,2.51,0,1,1,3.55,0A2.5,2.5,0,0,1,296.6,73.83Z"/><circle class="cls-4" cx="277.95" cy="72.06" r="2.51"/><polygon class="cls-4" points="288.16 70.28 288.16 70.28 288.16 70.28 288.16 70.28"/><polygon class="cls-4" points="288.16 70.28 288.16 70.28 288.16 70.28 288.16 70.28"/><polygon class="cls-4" points="288.16 70.28 288.16 70.28 288.16 70.28 288.16 70.28"/></g></g><g id="Layer_2-7" data-name="Layer 2"><g id="Layer_1-2-7" data-name="Layer 1-2"><path class="cls-4" d="M306.35,132.81c5.18,17.24.11,24.55-16.61,20.55,15,2.43,18.19-4.5,13.06-18.84-6.35,1.49-11.23,3.88-13.52,9.54a11.47,11.47,0,0,1-1.13,11.33A11.5,11.5,0,0,1,287,144.06c-2.29-5.66-7.17-8.05-13.52-9.54-5.13,14.34-1.93,21.27,13.07,18.84-16.73,4-21.79-3.31-16.62-20.55l-2-.95c.49-.2,17.85,1.34,20.15,10.14-.39-1.71-2.66-10.49-8.42-9.59.11,0,6.87-2.09,8.47,9.8a.44.44,0,0,0,0-.1.44.44,0,0,1,0,.1h0a.19.19,0,0,1,0,.08h0c1.59-12,8.37-9.91,8.48-9.87-6.2-1-8.36,9.3-8.47,9.85,2-9,19.72-10.61,20.21-10.4Z"/><path class="cls-4" d="M296.58,145.84a2.51,2.51,0,1,1,3.55,0A2.51,2.51,0,0,1,296.58,145.84Z"/><circle class="cls-4" cx="277.93" cy="144.06" r="2.51"/><polygon class="cls-4" points="288.14 142.29 288.14 142.28 288.14 142.28 288.14 142.29"/><polygon class="cls-4" points="288.14 142.29 288.14 142.28 288.14 142.28 288.14 142.29"/><polygon class="cls-4" points="288.14 142.29 288.14 142.28 288.14 142.28 288.14 142.29"/></g></g><rect class="cls-3" x="268.94" y="139.49" height="1.03"/><g id="Layer_2-8" data-name="Layer 2"><g id="Layer_1-2-8" data-name="Layer 1-2"><path class="cls-4" d="M306.26,205c5.18,17.24.11,24.55-16.61,20.56,15,2.42,18.19-4.51,13.06-18.85-6.35,1.49-11.23,3.88-13.52,9.54a11.47,11.47,0,0,1-1.13,11.33,11.5,11.5,0,0,1-1.13-11.33c-2.29-5.66-7.17-8.05-13.52-9.54-5.13,14.34-1.93,21.27,13.07,18.85-16.73,4-21.79-3.32-16.62-20.56l-2-1c.49-.2,17.85,1.34,20.15,10.14-.39-1.71-2.66-10.48-8.42-9.59.11,0,6.87-2.09,8.47,9.8a.44.44,0,0,0,0-.1.44.44,0,0,1,0,.1h0s0,.05,0,.08h0c1.59-12,8.37-9.91,8.48-9.87-6.2-1-8.36,9.31-8.47,9.85,2-9,19.72-10.6,20.21-10.4Z"/><path class="cls-4" d="M296.49,218a2.51,2.51,0,1,1,3.55,0A2.51,2.51,0,0,1,296.49,218Z"/><circle class="cls-4" cx="277.84" cy="216.24" r="2.51"/><polygon class="cls-4" points="288.05 214.47 288.05 214.46 288.05 214.46 288.05 214.47"/><polygon class="cls-4" points="288.05 214.47 288.05 214.46 288.05 214.46 288.05 214.47"/><polygon class="cls-4" points="288.05 214.47 288.05 214.46 288.05 214.46 288.05 214.47"/></g></g><rect class="cls-3" x="125.05" y="138.11" height="1.03"/><rect class="cls-3" x="124.89" y="-6.53" height="1.03"/><g id="Layer_2-9" data-name="Layer 2"><g id="Layer_1-2-9" data-name="Layer 1-2"><path class="cls-4" d="M162.45,27.08c5.17,17.24.1,24.55-16.62,20.55,15,2.43,18.2-4.51,13.07-18.85-6.35,1.5-11.24,3.89-13.52,9.55a11.48,11.48,0,0,1-1.13,11.32,11.48,11.48,0,0,1-1.14-11.32c-2.28-5.66-7.16-8-13.51-9.55-5.13,14.34-1.93,21.28,13.06,18.85-16.72,4-21.79-3.31-16.62-20.55l-2-.95c.49-.21,17.85,1.34,20.15,10.14-.39-1.72-2.67-10.49-8.42-9.59.11,0,6.86-2.09,8.47,9.8a.44.44,0,0,1,0-.1.36.36,0,0,0,0,.1h0s0,.05,0,.07h0c1.59-12,8.37-9.9,8.48-9.86-6.21-1-8.37,9.3-8.48,9.85,2-9,19.72-10.61,20.22-10.4Z"/><path class="cls-4" d="M152.68,40.1a2.51,2.51,0,1,1,3.55,0A2.5,2.5,0,0,1,152.68,40.1Z"/><circle class="cls-4" cx="134.02" cy="38.33" r="2.51"/><polygon class="cls-4" points="144.24 36.55 144.24 36.55 144.24 36.55 144.24 36.55"/><polygon class="cls-4" points="144.24 36.55 144.24 36.55 144.24 36.55 144.24 36.55"/><polygon class="cls-4" points="144.24 36.55 144.24 36.55 144.24 36.55 144.24 36.55"/></g></g><g id="Layer_2-10" data-name="Layer 2"><g id="Layer_1-2-10" data-name="Layer 1-2"><path class="cls-4" d="M162.43,97.68c5.17,17.24.1,24.55-16.62,20.55,15,2.43,18.2-4.5,13.07-18.84-6.35,1.49-11.23,3.88-13.52,9.54a11.48,11.48,0,0,1-1.13,11.32,11.45,11.45,0,0,1-1.13-11.32c-2.29-5.66-7.17-8.05-13.52-9.54-5.13,14.34-1.93,21.27,13.06,18.84-16.72,4-21.79-3.31-16.61-20.55l-2-1c.49-.2,17.85,1.34,20.15,10.14-.39-1.71-2.67-10.49-8.42-9.59.11,0,6.86-2.09,8.47,9.8,0,0,0-.07,0-.1s0,.07,0,.1h0s0,0,0,.08h0c1.59-12,8.37-9.91,8.48-9.87-6.2-1-8.37,9.3-8.48,9.85,2-9,19.72-10.61,20.22-10.4Z"/><path class="cls-4" d="M152.66,110.71a2.51,2.51,0,1,1,3.55,0A2.51,2.51,0,0,1,152.66,110.71Z"/><circle class="cls-4" cx="134.01" cy="108.93" r="2.51"/><polygon class="cls-4" points="144.22 107.16 144.22 107.15 144.22 107.15 144.22 107.16"/><polygon class="cls-4" points="144.22 107.16 144.22 107.15 144.22 107.15 144.22 107.16"/><polygon class="cls-4" points="144.22 107.16 144.22 107.15 144.22 107.15 144.22 107.16"/></g></g><g id="Layer_2-11" data-name="Layer 2"><g id="Layer_1-2-11" data-name="Layer 1-2"><path class="cls-4" d="M162.35,170.22c5.17,17.24.1,24.55-16.62,20.56,15,2.43,18.2-4.51,13.07-18.85-6.35,1.49-11.23,3.89-13.52,9.55a11.48,11.48,0,0,1-1.13,11.32A11.48,11.48,0,0,1,143,181.48c-2.28-5.66-7.16-8.06-13.51-9.55-5.13,14.34-1.93,21.28,13.06,18.85-16.72,4-21.79-3.32-16.62-20.56l-2-.94c.49-.21,17.85,1.34,20.15,10.13-.39-1.71-2.67-10.48-8.42-9.59.11,0,6.86-2.08,8.47,9.8a.29.29,0,0,1,0-.09.29.29,0,0,0,0,.09h0s0,0,0,.08h0c1.59-12,8.37-9.9,8.48-9.87-6.21-1-8.37,9.31-8.48,9.86,2-9,19.72-10.61,20.22-10.4Z"/><path class="cls-4" d="M152.58,183.25a2.51,2.51,0,1,1,3.55,0A2.51,2.51,0,0,1,152.58,183.25Z"/><circle class="cls-4" cx="133.93" cy="181.48" r="2.51"/><polygon class="cls-4" points="144.14 179.7 144.14 179.69 144.14 179.7 144.14 179.7"/><polygon class="cls-4" points="144.14 179.7 144.14 179.69 144.14 179.7 144.14 179.7"/><polygon class="cls-4" points="144.14 179.7 144.14 179.69 144.14 179.7 144.14 179.7"/></g></g><rect class="cls-3" x="124.94" y="210.91" height="1.03"/><g id="Layer_2-12" data-name="Layer 2"><g id="Layer_1-2-12" data-name="Layer 1-2"><path class="cls-4" d="M18.24,276.59c5.17,17.24.1,24.55-16.62,20.55,15,2.43,18.19-4.5,13.06-18.84-6.35,1.49-11.23,3.88-13.52,9.54A11.45,11.45,0,0,1,0,299.16,11.48,11.48,0,0,1-1.1,287.84c-2.29-5.66-7.17-8-13.52-9.54-5.13,14.34-1.93,21.27,13.07,18.84-16.72,4-21.79-3.31-16.62-20.55l-2-.95c.49-.2,17.85,1.34,20.15,10.14-.38-1.71-2.66-10.49-8.42-9.59.12,0,6.87-2.09,8.47,9.8a.36.36,0,0,0,0-.1.36.36,0,0,1,0,.1H0a.19.19,0,0,1,0,.08H0c1.59-12,8.37-9.91,8.48-9.87-6.2-1-8.36,9.3-8.47,9.85,2-9,19.72-10.61,20.21-10.4Z"/><path class="cls-4" d="M8.46,289.62a2.51,2.51,0,1,1,3.55,0A2.51,2.51,0,0,1,8.46,289.62Z"/><circle class="cls-4" cx="-10.19" cy="287.84" r="2.51"/><polygon class="cls-4" points="0.03 286.06 0.02 286.06 0.02 286.06 0.03 286.06"/><polygon class="cls-4" points="0.03 286.06 0.02 286.06 0.02 286.06 0.03 286.06"/><polygon class="cls-4" points="0.03 286.06 0.02 286.06 0.02 286.06 0.03 286.06"/></g></g><g id="Layer_2-13" data-name="Layer 2"><g id="Layer_1-2-13" data-name="Layer 1-2"><path class="cls-4" d="M306.24,276.59c5.17,17.24.1,24.55-16.62,20.55,15,2.43,18.19-4.5,13.06-18.84-6.35,1.49-11.23,3.88-13.52,9.54A11.45,11.45,0,0,1,288,299.16a11.48,11.48,0,0,1-1.13-11.32c-2.29-5.66-7.17-8-13.52-9.54-5.13,14.34-1.93,21.27,13.07,18.84-16.72,4-21.79-3.31-16.62-20.55l-2-.95c.49-.2,17.85,1.34,20.15,10.14-.38-1.71-2.66-10.49-8.42-9.59.12,0,6.87-2.09,8.47,9.8a.36.36,0,0,0,0-.1.36.36,0,0,1,0,.1h0a.19.19,0,0,1,0,.08h0c1.59-12,8.37-9.91,8.48-9.87-6.2-1-8.36,9.3-8.47,9.85,2-9,19.72-10.61,20.21-10.4Z"/><path class="cls-4" d="M296.46,289.62a2.51,2.51,0,1,1,3.55,0A2.51,2.51,0,0,1,296.46,289.62Z"/><circle class="cls-4" cx="277.81" cy="287.84" r="2.51"/><polygon class="cls-4" points="288.02 286.06 288.02 286.06 288.02 286.06 288.02 286.06"/><polygon class="cls-4" points="288.02 286.06 288.02 286.06 288.02 286.06 288.02 286.06"/><polygon class="cls-4" points="288.02 286.06 288.02 286.06 288.02 286.06 288.02 286.06"/></g></g><rect class="cls-3" x="124.89" y="281.47" height="1.03"/><g id="Layer_2-14" data-name="Layer 2"><g id="Layer_1-2-14" data-name="Layer 1-2"><path class="cls-4" d="M162.3,242.59c5.18,17.24.11,24.55-16.61,20.55,15,2.43,18.19-4.5,13.06-18.84-6.35,1.49-11.23,3.88-13.52,9.54a11.45,11.45,0,0,1-1.13,11.32A11.48,11.48,0,0,1,143,253.84c-2.29-5.66-7.17-8.05-13.52-9.54-5.13,14.34-1.93,21.27,13.07,18.84-16.72,4-21.79-3.31-16.62-20.55l-2-1c.49-.2,17.85,1.34,20.15,10.14-.39-1.71-2.66-10.49-8.42-9.59.11,0,6.87-2.09,8.47,9.8a.36.36,0,0,0,0-.1.36.36,0,0,1,0,.1h0a.19.19,0,0,1,0,.08h0c1.59-12,8.37-9.91,8.48-9.87-6.2-1-8.36,9.3-8.47,9.85,2-9,19.72-10.61,20.21-10.4Z"/><path class="cls-4" d="M152.53,255.62a2.51,2.51,0,1,1,3.55,0A2.51,2.51,0,0,1,152.53,255.62Z"/><circle class="cls-4" cx="133.88" cy="253.84" r="2.51"/><polygon class="cls-4" points="144.09 252.06 144.09 252.06 144.09 252.06 144.09 252.06"/><polygon class="cls-4" points="144.09 252.06 144.09 252.06 144.09 252.06 144.09 252.06"/><polygon class="cls-4" points="144.09 252.06 144.09 252.06 144.09 252.06 144.09 252.06"/></g></g></pattern></defs><g id="Layer_2-15" data-name="Layer 2"><g id="Layer_1-2-15" data-name="Layer 1"><rect class="cls-6" width="1000" height="1000"/></g></g></svg>