<svg id="Layer_1" data-name="Layer 1" xmlns="http://www.w3.org/2000/svg" viewBox="0 0 288 288"><defs><style>.cls-1{fill:#f7901e;}.cls-2{fill:#fff;stroke:#231f20;stroke-miterlimit:10;}</style></defs><g id="Layer_2" data-name="Layer 2"><g id="Layer_1-2" data-name="Layer 1-2"><path class="cls-1" d="M260.27,75c33,110.12.65,156.79-106.15,131.29,95.79,15.5,116.22-28.8,83.45-120.39-40.56,9.54-71.74,24.81-86.34,61,10.24,23.74,8.42,47.83-7.23,72.32-15.65-24.49-17.47-48.58-7.23-72.32-14.6-36.17-45.78-51.45-86.34-61-32.77,91.59-12.34,135.89,83.45,120.39C27.07,231.77-5.31,185.1,27.73,75l-12.89-6c3.13-1.32,114,8.56,128.72,64.75-2.48-10.94-17-67-53.78-61.26.72-.22,43.84-13.32,54.11,62.59l-.15-.6.15.61h0c0,.17.07.33.11.5v0a.06.06,0,0,1,0,0c10.16-76.4,53.44-63.26,54.17-63-39.63-6.16-53.44,59.44-54.15,62.94,12.9-57.68,126-67.76,129.13-66.43Z"/><path class="cls-1" d="M201,160.66a16,16,0,1,1,16.34,0A16.06,16.06,0,0,1,201,160.66Z"/><circle class="cls-1" cx="78.71" cy="146.86" r="16.02"/><path class="cls-1" d="M144,135.51a.08.08,0,0,0,0,0v0Z"/><path class="cls-1" d="M144,135.51a.08.08,0,0,0,0,0v0Z"/><path class="cls-1" d="M144,135.51a.08.08,0,0,0,0,0v0Z"/></g></g><rect class="cls-2" x="124.84" y="244.54" height="1.03"/></svg>