<svg id="Layer_9" data-name="Layer 9" xmlns="http://www.w3.org/2000/svg" viewBox="0 0 580 300"><defs><style>.cls-1{fill:#231f20;}.cls-2{fill:#fff;stroke:#ed1c24;stroke-miterlimit:10;}.cls-3{fill:#ed1c24;}</style></defs><rect class="cls-1" width="580" height="300"/><polygon class="cls-2" points="83.25 99.48 112.17 144.57 133.23 209.52 147.16 156.64 168.97 119.4 133.23 242.03 83.25 99.48"/><path class="cls-2" d="M527.6,175.55a205.24,205.24,0,0,0-26.22.79,36.15,36.15,0,0,0,0-9.87c7.62,1.84,16.44,2.31,27.22,1.41V143.94c-11.42-1.37-20.41-.55-27.22,3.13-.69-4.42-1.09-8.87,0-13.53H541c-1.18,32.2-2.49,58,5.34,77.14-.43,1-39.21,2-45-2.47a60,60,0,0,1,0-11.15c10.2,4.12,16.56,6.55,26.27,4.88Z"/><path class="cls-2" d="M183.91,176.82a205.24,205.24,0,0,1,26.22.79,36.63,36.63,0,0,1,0-9.88c-7.62,1.84-16.44,2.31-27.22,1.41V145.21c11.42-1.37,20.41-.55,27.22,3.13.69-4.42,1.09-8.87,0-13.54H170.51c1.17,32.21,2.49,58-5.35,77.14.44,1,39.22,2,45-2.46a58.31,58.31,0,0,0,0-11.15c-10.19,4.11-16.56,6.54-26.27,4.88Z"/><path class="cls-2" d="M311.49,84.09c-48.19-10.82-84.92-10.35-92.7,22.46-5,21,25.76,39.26,25.76,39.26l-40,96.17,33.29-34.44L260.08,152l19.05,3.32V140.68c-73.55-10.65-44.32-59.23,6.39-48.59l-4.45,113.23,23,6.15C292.54,144.4,292.09,96.82,311.49,84.09Z"/><path class="cls-2" d="M313.69,84.08c48.19-10.83,84.92-10.36,92.7,22.45,5,21-25.76,39.26-25.76,39.26l40,96.17-33.29-34.43L365.1,152l-19.05,3.32V140.66c73.55-10.65,44.32-59.23-6.39-48.58l4.45,113.22-23,6.16C332.64,144.39,333.09,96.8,313.69,84.08Z"/><path class="cls-2" d="M416.75,140.57l15.84.11c-4.25,16-5.25,55.75-6.33,95l-7.23-31C420,178.88,420,155.66,416.75,140.57Z"/><circle class="cls-2" cx="425.06" cy="132.03" r="6.6"/><path class="cls-2" d="M441,132c7.63,14.63,7.56,41.5,4.26,73.51C506.26,209.47,513.72,121.45,441,132Zm14,61.13c1.95-18.93,1.9-44.58-2.61-53.23C496.13,138.63,491.09,195.48,455,193.16Z"/><path id="O1" class="cls-2" d="M86.6,177.38l14.16.32a34.59,34.59,0,0,1-32.63,32.19c-1.31-2.14-3.38-6.68-.48-10.51.13-.17,0-48.7,0-48.7a16,16,0,0,0-1.85-.1,17.85,17.85,0,0,0-3.74.39s-.42,48.29-.28,48.31c3,3.37,2.43,7.13.5,10.43a34.59,34.59,0,0,1-30.6-33.55l13.26.3a25,25,0,0,0,9.22,18.39V154.67a25.2,25.2,0,0,0-9.25,18.79l-13.17-.29a34.58,34.58,0,0,1,69.09,1.54l-14.11-.31c-.11-9.14-4.61-17.05-11.17-21v42.8C81.56,192.51,85.84,185.55,86.6,177.38Z"/><path class="cls-3" d="M119.47,240.22c.12.28.72-.31.86-.36C119.88,239.58,119.31,240.36,119.47,240.22Z"/><polygon class="cls-3" points="115 237.48 115.33 237.35 114.23 237.28 115 237.48"/><path class="cls-3" d="M112.24,233.84c-.86,1.2,1.19,1.18,1.28,2.13l-.17.3,1.12-.4C113.73,235.2,112.35,234.63,112.24,233.84Z"/><path class="cls-3" d="M113.19,230.05c-.35.45-.7-.13.21.55a1.23,1.23,0,0,1,0-.16A2.43,2.43,0,0,1,113.19,230.05Z"/><path class="cls-3" d="M113.44,230.44c.33.36.18-.53,0,0Z"/><path class="cls-3" d="M111.84,228.86l.78.21c.18-.3-.11-.8.21-.77C112.22,227.94,112,228.24,111.84,228.86Z"/><path class="cls-3" d="M110.66,229l.36.14C111.1,229,111.08,228.92,110.66,229Z"/><path class="cls-3" d="M111.79,229.43l-.77-.28c-.12.21-.48.49.32.15C111,229.51,111.38,229.38,111.79,229.43Z"/><path class="cls-3" d="M111.86,229.88c0,.47.1,1-.67.74C112.08,231.47,112.76,230.72,111.86,229.88Z"/><path class="cls-3" d="M110.94,234.54l0,.63.62,0C111.21,235.19,111.27,234.25,110.94,234.54Z"/><path class="cls-3" d="M110,225.28c-.26.15-.5.66-.78.93l.56.16C109.82,226.05,109.69,225.58,110,225.28Z"/><path class="cls-3" d="M109.24,226.21l-.84-.25C108.74,226.5,109,226.44,109.24,226.21Z"/><polygon class="cls-3" points="109.34 229.88 110.9 230.13 109.2 229.71 109.34 229.88"/><polygon class="cls-3" points="108.43 223.13 109.22 223.02 107.96 223.1 108.43 223.13"/><path class="cls-3" d="M107.25,221.79c.64-.11.53-.91,1-.88a2.74,2.74,0,0,0-1.59-.37C107.09,220.7,107.3,221.08,107.25,221.79Z"/><path class="cls-3" d="M105.76,220.44a4.32,4.32,0,0,0,.9.1A2.17,2.17,0,0,0,105.76,220.44Z"/><path class="cls-3" d="M107.8,224.93a1.31,1.31,0,0,0,.34-1l-.5.73Z"/><path class="cls-3" d="M107.62,224.72l0,0-.32-.5Z"/><path class="cls-3" d="M107.84,225l0,0C107.75,225,107.73,225,107.84,225Z"/><path class="cls-3" d="M108.83,228c-.62,0-1.55-.41-1.61.68C107.86,228.52,107.89,227.89,108.83,228Z"/><path class="cls-3" d="M107.2,225.9l.3.71c.17-.15.35-.46.66-.44Z"/><polygon class="cls-3" points="106.77 225.77 107.2 225.9 107.09 225.63 106.77 225.77"/><path class="cls-3" d="M105.91,221.93a1.5,1.5,0,0,1-1-.57,3.72,3.72,0,0,0,.58,1.18C105.72,222.42,106.21,222.28,105.91,221.93Z"/><path class="cls-3" d="M106.68,223.33l-.08,0C106.57,223.39,106.57,223.43,106.68,223.33Z"/><path class="cls-3" d="M102.52,218.25l-.08.14.12-.07Z"/><path class="cls-3" d="M105.39,222.69c.07.35.35.38.66.37a2.58,2.58,0,0,1-.58-.52C105.36,222.59,105.29,222.63,105.39,222.69Z"/><path class="cls-3" d="M104.79,219.81a3.54,3.54,0,0,0,0,.73C104.87,220.24,105,219.73,104.79,219.81Z"/><path class="cls-3" d="M106.72,223.08h.06C106.86,222.9,106.8,223,106.72,223.08Z"/><path class="cls-3" d="M106.72,223.08a2.12,2.12,0,0,0-.67,0,2.08,2.08,0,0,0,.55.25A.85.85,0,0,1,106.72,223.08Z"/><path class="cls-3" d="M97.49,220.61c.65-.43,1.74-.2,1.52.88.9.21,2.66-1.72,3.43-3.1-.29.19-.54.39-1.35.08-.19.47.19,1.91-.75,1.85-.91-.53-.26-.81-.22-1.43-.53.91-1.88-.13-2.9.92l.92.37C98,220.33,97.51,220.3,97.49,220.61Z"/><path class="cls-3" d="M103.23,219.56l.26.18a2.85,2.85,0,0,1,.21-1.48,1.35,1.35,0,0,0-1.14.06l.82,1.25Z"/><path class="cls-3" d="M104.32,220.82c-.83.33-1.56,0-2,.88.59.67,1,.07,1.56.26-1-1,.63,0,.38-1.08a2.29,2.29,0,0,1,.65.48,4.54,4.54,0,0,1-.14-.82l0,.05h0c0,.11-.09.16-.08.07h0a1.92,1.92,0,0,1-.29.14c-.11-.43.14-.18.29-.14l.12-.06v0l-1.24-.85A2.81,2.81,0,0,0,104.32,220.82Z"/><path class="cls-3" d="M105.29,229.14a.56.56,0,0,1,.13-.16C105.28,229,105.21,229,105.29,229.14Z"/><path class="cls-3" d="M105.34,228.36c.16,0,.49-.13.62.19s-.32.25-.54.43c.31,0,.92.2.86-.56h-.15a3,3,0,0,1,.43-1.87A7.83,7.83,0,0,0,105.34,228.36Z"/><path class="cls-3" d="M104.63,224.69l-1.06-.7-.21.93.33-.29C104,225.27,104.31,224.83,104.63,224.69Z"/><polygon class="cls-3" points="102.78 217.88 103.59 217.46 102.16 217.69 102.78 217.88"/><polygon class="cls-3" points="101.75 216.72 102.4 216.28 101.78 216.25 101.75 216.72"/><path class="cls-3" d="M49,163.75l-.32-.05A.65.65,0,0,0,49,163.75Z"/><path class="cls-3" d="M50,165.14l.33-.2C50.12,165,50,165.08,50,165.14Z"/><path class="cls-3" d="M78.49,186.45c.27-.85.83-2,.16-1.41l-.58.64A.78.78,0,0,1,78.49,186.45Z"/><path class="cls-3" d="M62.14,173.51l-.14.24.79-.32Z"/><path class="cls-3" d="M59.17,175.48l.17-.7A2.06,2.06,0,0,0,59.17,175.48Z"/><path class="cls-3" d="M42.61,156.88l-.86.32C42,157.54,42.25,157.12,42.61,156.88Z"/><path class="cls-3" d="M91.83,204.26a2.38,2.38,0,0,0-.26-1.19C91.5,203.8,91.17,204.59,91.83,204.26Z"/><path class="cls-3" d="M56.66,158.75a.73.73,0,0,0-.54.16A.59.59,0,0,0,56.66,158.75Z"/><path class="cls-3" d="M90.79,202.06c0,.12,0,.2,0,.31a1.92,1.92,0,0,1,.8.7C91.62,202.54,91.53,202,90.79,202.06Z"/><path class="cls-3" d="M22.6,129.53a.7.7,0,0,1,0-.12C22.53,129.47,22.55,129.51,22.6,129.53Z"/><path class="cls-3" d="M23.49,116.43c.1,0,.19.17.29.28C23.79,116.61,23.71,116.52,23.49,116.43Z"/><path class="cls-3" d="M98.25,211.52c.24.23.1,0,0,0Z"/><path class="cls-3" d="M96.52,214.86a.65.65,0,0,0-.41.15A.82.82,0,0,1,96.52,214.86Z"/><path class="cls-3" d="M84.55,202.7v0C84.46,202.86,84.48,202.82,84.55,202.7Z"/><path class="cls-3" d="M98.24,212.15a1.38,1.38,0,0,0-.06-.49A1.48,1.48,0,0,0,98.24,212.15Z"/><path class="cls-3" d="M98.52,211.85a2,2,0,0,0,.11.28C98.77,212.08,98.82,212,98.52,211.85Z"/><path class="cls-3" d="M97.93,211.18a1.23,1.23,0,0,1,.25.48c0-.09,0-.14.07-.14S98.08,211.35,97.93,211.18Z"/><path class="cls-3" d="M35.45,142.56l0-.09C35.07,142.51,35.17,142.55,35.45,142.56Z"/><path class="cls-3" d="M66.3,185.19h0v0Z"/><path class="cls-3" d="M65.31,185c1.06-.38,1.07-.15,1,.2l1.8-1.72Z"/><path class="cls-3" d="M46.33,160.65l-.28.91c-1.42.24-1.36-.42-1.91.66,2.19-1.57,1.54,1.56,3.72,0l-.22.63c0-.1-.18,0-.22-.11-.59,1.35,1.86-.76,2.12.21,0,.38-.14.79-.53.81l1,.17c.08.2-.32.44-.41.24l.84.74-.07,0a9.58,9.58,0,0,1,1.49-.28c-.14.46-.31.07-.54.33l.89.08c-.4.62-1.25.63-1.42.24-1.79,2.08.84,0,.34,1.91l-.62-.25c-1,1.22-.28,1.24-.64,2.33.3-.42,1.12-2.48,2-2.37,0,.27,0,.53.67.48-.76.58-.37.72-.06,1l-1,.74c.57.15,1.06-.27,1.68-.4.22.49-.49,1.18-1.08,1.78.35.78.9-1.42,1.69-.78,0,.85.75.92,1.86,1.12-.05.66-.67.41-.85.77l1.06-.28c0,.1-.22.26-.36.35.54,0,1-.75,1.65-.5,1.2-.73-.91,2.17.78,1.77-.18.35-.67.4-1,.74a7.06,7.06,0,0,0,2.71,0l-.25,1c.45-1,1.73-1.15,2.8-1.27.26-.42.49-.78.58-1l1.08.29c-.1.22-.5.41-1,.61l.34-.05c-.18.54-.86.85-1.56,1.1l.43-.73a7.47,7.47,0,0,0-2.11,1.13.69.69,0,0,1,.45,0,1.3,1.3,0,0,0-.46.26c-.08.1.2,0,.54-.07l-1,1,.48-.31v1.47c1.64-.2,3.74-.9,5-.2-1,.37-1.39,1-2.37,1.7.81-1.07-1.07-.48-1.27-1.18.11.36-.41.66-.62.71l1.68.25c-.82.59-.44.67-.58,1.17,1.43-1.4,1.61-.08,2.39,0-.51.43-1.12.75-1.36.17-.78,1.44,2.37-.73,1.77.56-.11-.11-.07-.23-.38-.07a.55.55,0,0,1,.24,1.06l-.1-.1c.41.92,1.81,2.38,3.24,1.48-.17.14-1.7,1.13-2,1.29,1.86-.68,3.7-1.38,5.58-2a21.08,21.08,0,0,0-2.4,1.95,4.22,4.22,0,0,1-2.38,1.21.77.77,0,0,0,.08.5,1.47,1.47,0,0,0,.79.53c0-.31,1.3-1.74,1.61-1.56-.74,1.68-.31,1-.74,2.72,0-.47,2.08-1.54,2.36-1-.32.13-1.75,1.39-2.06,1.37l2.62-.24c-.53,0-1.54,1.1-1.85,1.73.26-.38.71,1,1.11,1.15l0-.78c.69,1.46,3.43-.66,4.3.66-.49.12-2.54,1.34-2.28,2.15,1.13-.41,5.35-2,6.89-1.48l-.36.61,1.24.4a43.24,43.24,0,0,1-7.5,1.27c0,.78-.51.6.07,1.27-.29.62-1,.18-1.21,0l.94,1.88c1-.88,2,.44,2.85-.29l-2.46-.95c1-.88,3.79-1.26,4.49,0-.19.62-2.05,1.22-2.38,1.52.48-.13,1.54.57,1.36.87l-.94-.06c.1,1,2.21,0,1.79,1.53.14.32-.75,1.85-.08,1.41a20.25,20.25,0,0,1,5.66-4.7,11.85,11.85,0,0,1-.43,3.06c-.61,1.16-2.77,1.06-3.29,2.06a1.86,1.86,0,0,1,1-.22c0,.47-1,.56-.39,1.08,1.15-.72.86,1.31,1.13-.41.76.37.26.81.85,1.48.52-.76,2.84-1.17,3.6-.81a2.29,2.29,0,0,0-.66.77c.84,1.3.86,2.33,1.73,3.49-.18.3-.07,1.09-.72,1.21.32,0,.8-.11,1.1.23-.41,1.39-.75-.68-1.47.69.66-.43,1.56.26,2.34.46.84-.89-.71-1.3-1.48-1.51A5,5,0,0,1,91,206.8c1.06.7-.54,1.07-.23,1.09,1.14,2,3.49-.25,3.66,2-.39,1.24-1.66,1.32-2.17,1.91-.91-.53-.37-1.6-.81-2.1l.1,1c-.47,0-1.08-.39-1.05-.86-.38,1.08,2.16,3.13,2.51,5.05.47,0,1.09.22,1.28-.24l-.45-.34c.37-.92,1.57.1,1.46-.7.93.22,2.18.3,2.43,1.42l-.85.89c.27-.23.17-1-.31-1,.69,0-.33,2.26,1.22,1.67l.22-1.09c.94.22,2.52.16,2.77,1.12.7-1.06-.24-.08.48-1.45-1,1.51-1.37-1.91-2.27-.08.88-1.52-.16-1.34.41-2.88-.3.27-.42.71-.73,0a2,2,0,0,1-.38.08.11.11,0,0,1,0-.06v.06c-.07,0-.08,0,0,0a1.39,1.39,0,0,1-.24.68c-1,.25-1.69-.74-2.32-.78-.12-.48.48-.13.67-.58l-.94-.06c.67-.59.43-1.87,1.5-1.33l-.56-.79a1.53,1.53,0,0,0-.86-1.66c-.12-.48-1.48-.32-.69-.43l-1.36-.87.17-.15c-.82-1.26-3-1.56-2.82-3.9A2.38,2.38,0,0,1,89.44,201l.51-.6c-.61-.35-.57-2-1.38-1.75,1.22-1.81-1.55-2.78-2-3.91l-.82.58a5.63,5.63,0,0,0-2-1.61l-.67.58c-1.09-.22-.81-2.1-1.69-3.1.33-.14.46.19.44.5.63-2.48-3.19-1.78-2.91-3.81a.57.57,0,0,1-.52-.7.1.1,0,0,0,.09,0,.35.35,0,0,0-.08-.12c0-.22.07-.46.07-.68a1.89,1.89,0,0,0-.12.62,2.9,2.9,0,0,0-1-.67l.65-.72s0,0-.08-.06c0-.53-.56,0-1,.63a2.26,2.26,0,0,0-.78-.09c1-1.19-1.07-.54,0-1.89-.8.26-1.74-1.28-3.21-.43.17-.15.18-.31.32-.14-.12-.48-.25-1-.88-1l.85-.89-1.91.19a1.81,1.81,0,0,1,1.54-1.45c-1.74.09-.92-.31-2.55-.1L71,180c-.2-.22-1.32,0-.92-.5.78-1.43-1.84-2.74-1.78-4.95-1.63,1.67.33-1.26-1.13-.23.37-.41.47-.78,1-.85-1-.37-.11-1.57-1.68-1.13.38-.42.75-.34,1-.61-.14,0-.55.07-.34-.2s.44-.18.71-.21c-.62-.66-2,.29-3.3,1.2.32-.81.1-.93-.92-.56.31-.44.58-1,1.06-.65-.13-.29-.55-2-1.58-1.23.2-.27-.19-.4-.35-.38a3.9,3.9,0,0,0-.83-1.2l0,.28c-1.38.71-.62-.25-1.1-.57l.13-.09c.11-1.68-.75-.11-.51-1.87l-.71.63c-1.7,1.15.28-1.62-.79-1.72l-.27.54c-.79.11,1.53-2.57,1.49-3,.09-.17.31-.06.49,0,.32-1.57-1.07.64-1.77.2.44-.52,1.47-.89,1.25-1.38.27-.54-2.66.11-2.07-1.24-.32.44-.63.88-1.16.83-.48-.33.64-2.38-1-1.79a.94.94,0,0,1,.26-.32c-.59-.09-1.39-.67-2.25-.34,2.37-2.3-2.86-1.13-.46-3l-.92-.93.27-.17c-.35-.78-1.1-.57-1.86-.36.05-.28.36-.34.49-.43-.25-1.33-.43-1.35-2.25-1.25l.72-.68c-.62.13.15-2.33-1.48-2.59a.94.94,0,0,1,.43-.16c-1.74-.37.2-4.21-2.94-2.43l-1.23-.17c.47,1.08-1.34.8-1.52,1.54-.45-.23.14-1.58.63-1.25l-.09.17c1.6-1-.35-1.53.68-2.28-1.44-1.74-2-4.11-3.18-5.84l-1,1.07-.38-.63c.15-.36.74-.9,1-.44.49-.72-1.08-.29-1.34-.11-.16-1.17,1.59-.7,1.42-1l-.34-.27-.08.18c-.68.08-1.2.44-1.52-.11,0-.49.58-.7.53-.86s.09-.14-.11-.22l-.47-.82-.68,1c-.7,0-.49-.73-1.26.4,1.21-1.71-1.53-3.19-1.28-3.87a1.61,1.61,0,0,1-1.69-1c-.08.28-1,1.15-1.29.57,2.25-1.43.24-1.59,1.46-3.14-.74,1.12-1.3-1.18-2.31.46-.14-.54.77-.63,1-1.31-1.55-.34-1.09-2.53-2.27-3.5-.29.19-.56.71-1.17.77l.91-1.68c-.32-.13-1.76,1-1.13-.16-.19.24-.47.6-.68.51-.43-3.36-4.74-3.91-4-8.21-.29.73-.51.56-.72.33,0,.25-.68.52-1,.83l.28-1.78c-1.18.61-.88-1-2-.35l.42.18c-1.5.48-2.17,2.58-3.72,3.67,1.69-.56-1,2.74,1.46,2-.18.41-.6.23-.88.59.8-.3,1.11-.17,1.15.48l-.2.08c1.09,1.1.86,2.1,1.48,3.8l.67-.67c.12.37-.06.61-.14.89,1.38-.53-.57-.88.91-1.52-1.22,1.55,1.56,2.09,0,3.67.34.46.76-.79,1.1-.33l-.38.48.69-.35c.13.38-.34,1-.72,1.28,0-.1-.27-.12-.36-.17-.26.81,1,.95.94,1.21l-.05-.65c1.38.9,1.92,2.88,3.78,3.35l.29-.36c1.34.41.17,1,1.23,1.8l-.11,0a1,1,0,0,1,1.06.37c-.61.06-.44,1.09-1.15,1.11,1.46.45.92.07,2.73-.28l-.47.6c.7-.18,1-.38,1.53,0-.82,0-.65,1-1.66,1-.48,2,2.48.57,1,2.48,2-.75.2-1.59.75-1.59.36-.62,1.51-.52,1.6-.07s-1.63,2.15-.95,3c-.06-.09-.18,0-.24-.09-.17.63,1,.19.66,1.09,1.14-.53.33.55,1.62-.34l-.88-.56c.66.19,2.43-.51,2.28.75a2.76,2.76,0,0,1-1.09.17c-.21.49.55.22.35.73-1.3.89-1-.74-2.3-.48-.36.63,1.58.2,0,1,2-1,.42,1,2.16.56l-.77.53c.18,0,.68-.08.79.1l-1.2.44c1.18-.17,0,1.45.75,1.54-.73-.91.74-.89,1-1.7,1.88.38-1.45,2.15-.11,3.16-.24-.09,0-1,.51-1a2.27,2.27,0,0,1-.29,1.35c.81.73.67-.71,1.4-.7-.68,1,.69.13,1.27.28l-.76.58c.26,1.34,1.78-1,1.86.37l-1.34.44.62.25-.93.56c1,0,1,.29,1.1,1,.45-.53,1.42-1,1.77-.58-.22.63-.84.38-.27.91-.58.22-1.29.53-.79-.27-.27.16-.58.23-.85.39-.28.71.49.88.66,1.1a.5.5,0,0,1,0-.38l1.72.08a1,1,0,0,1-.8.48c.22.12.67,0,.93.19-.67.4-1.29.9-1.87.76l1.33.31c-.22.26-.41,1-.72,1.06,0,.74,2.07.23,2.07,1.21a.68.68,0,0,1,.49,0c.31.69-.06,1.78,1.31,1.82l-.81,1.23c.67.35,1-1.59,2.1-1,.83.36-.77,1-.9,1.41.8-.11,2.35-.43,1.89.85C46.5,161,46.55,160.77,46.33,160.65Zm5.56,6.26c-.26,0-.94.11-.57-.32C52.3,166.07,52,166.5,51.89,166.91Zm9.54,8.69c-.32.1-.31-.14-.15-.53C61.43,175.14,61.51,175.3,61.43,175.6Zm34,33.52h-.05C95.35,208.48,95.35,208.72,95.43,209.12Zm.35,1.14a.35.35,0,0,0,.35-.2c-.24.09-.4-.1-.52-.37C95.46,209.91,95.41,210.13,95.78,210.26ZM39.12,136.77,39,137C38.59,137,38.84,136.87,39.12,136.77Z"/><path class="cls-3" d="M59.52,175.25a2.59,2.59,0,0,1,.37-.37A.51.51,0,0,0,59.52,175.25Z"/><path class="cls-3" d="M42.77,156.83v0a.8.8,0,0,0-.16.08Z"/><path class="cls-3" d="M78.86,201.46a1.09,1.09,0,0,1,.12-.65A.44.44,0,0,0,78.86,201.46Z"/><path class="cls-3" d="M100.66,214l-.63-.42c.25.25.16.47.14.7C100.34,214.11,100.51,213.8,100.66,214Z"/><path class="cls-3" d="M99.73,222.48c.16,0,.15.17.3.18l.34-.29C100.07,222,99.6,222,99.73,222.48Z"/><path class="cls-3" d="M98.54,216.42c-.6.53-.11.73.31,1l-.06-.07C99.78,216.82,99.16,216.62,98.54,216.42Z"/><path class="cls-3" d="M98.94,217.53a1,1,0,0,1,.3.35C99.63,217.66,99.2,217.68,98.94,217.53Z"/><path class="cls-3" d="M97.06,211.06c0,.31.91-.51.73-.2C98.77,210.45,95.85,210.35,97.06,211.06Z"/><polygon class="cls-3" points="96.69 218.35 97.36 217.61 96.56 217.87 96.69 218.35"/><path class="cls-3" d="M94.86,214.77l.27.8a.35.35,0,0,1,.4,0C95.26,215.13,95.09,214.58,94.86,214.77Z"/><path class="cls-3" d="M95.53,215.54a.79.79,0,0,0,.52.41A1.52,1.52,0,0,0,95.53,215.54Z"/><polygon class="cls-3" points="95.78 217.66 95.81 217.35 95.52 216.86 95.78 217.66"/><path class="cls-3" d="M89.79,207.83l-.75-.52a.32.32,0,0,0,0,.62C89.31,208,89.61,208.13,89.79,207.83Z"/><path class="cls-3" d="M89.24,211.57c0-.31.19-.46.36-.76l-1,.73Z"/><path class="cls-3" d="M87.47,209.73c-.33.13-1.55-.41-.82.42C87,210,87.73,210.53,87.47,209.73Z"/><polygon class="cls-3" points="80.72 198.34 80.86 198.5 82.44 197.25 80.72 198.34"/><path class="cls-3" d="M69.84,192.06c.25,1.12,1.14-.56,1.23.55.53-.1-.07-.91.41-1C70.7,191.46,70.72,191,69.84,192.06Z"/><path class="cls-3" d="M71.48,191.65a2.27,2.27,0,0,0,.43.07A1,1,0,0,0,71.48,191.65Z"/><polygon class="cls-3" points="23.35 114.47 23.41 113.86 23.05 114.5 23.35 114.47"/><path class="cls-3" d="M21.64,114.69l1-.86-1.09.49C21.62,114.37,21.83,114.46,21.64,114.69Z"/><path class="cls-3" d="M50.59,169.47l.27-.16c.22-.26.18-.36.09-.56Z"/><polygon class="cls-3" points="47.67 164.07 47.71 164.17 48.52 163.31 47.67 164.07"/><path class="cls-3" d="M43.4,160.93c.09.19.44.23.53.42C43.49,161.12,44.52,160,43.4,160.93Z"/><path class="cls-3" d="M20.58,116.73c-.07-.14-.36.16-.43.19C20.38,117.05,20.66,116.65,20.58,116.73Z"/><polygon class="cls-3" points="22.84 118.05 22.68 118.12 23.23 118.14 22.84 118.05"/><path class="cls-3" d="M24.27,119.84c.41-.61-.61-.58-.67-1l.08-.16-.55.21C23.5,119.17,24.2,119.44,24.27,119.84Z"/><path class="cls-3" d="M23.83,121.74c.17-.23.35.06-.11-.27a.19.19,0,0,1,0,.08A.67.67,0,0,1,23.83,121.74Z"/><path class="cls-3" d="M23.7,121.55c-.16-.17-.08.27,0,0Z"/><path class="cls-3" d="M24.52,122.32l-.39-.09c-.09.15.06.39-.1.38C24.34,122.78,24.43,122.63,24.52,122.32Z"/><path class="cls-3" d="M25.11,122.23l-.18-.06C24.89,122.23,24.9,122.28,25.11,122.23Z"/><path class="cls-3" d="M24.54,122l.39.14c.06-.11.23-.26-.17-.08C25,122,24.75,122.06,24.54,122Z"/><path class="cls-3" d="M24.5,121.81c0-.23-.06-.47.33-.38C24.37,121,24,121.4,24.5,121.81Z"/><path class="cls-3" d="M24.91,119.47v-.31l-.31,0C24.76,119.15,24.75,119.62,24.91,119.47Z"/><path class="cls-3" d="M25.47,124.09c.13-.08.24-.33.38-.47l-.28-.08C25.56,123.7,25.63,123.94,25.47,124.09Z"/><path class="cls-3" d="M25.85,123.62l.42.11C26.1,123.47,26,123.5,25.85,123.62Z"/><polygon class="cls-3" points="25.76 121.79 24.97 121.68 25.83 121.87 25.76 121.79"/><polygon class="cls-3" points="26.29 125.15 25.89 125.21 26.53 125.16 26.29 125.15"/><path class="cls-3" d="M26.89,125.8c-.31.07-.25.46-.49.45a1.32,1.32,0,0,0,.81.17C27,126.35,26.88,126.16,26.89,125.8Z"/><path class="cls-3" d="M27.65,126.46a2.55,2.55,0,0,0-.44,0A1,1,0,0,0,27.65,126.46Z"/><path class="cls-3" d="M26.59,124.24a.65.65,0,0,0-.17.49l.25-.38Z"/><path class="cls-3" d="M26.67,124.34h0l.16.25Z"/><path class="cls-3" d="M26.57,124.21l0,0S26.62,124.19,26.57,124.21Z"/><path class="cls-3" d="M26,122.74c.32,0,.78.19.8-.36C26.52,122.45,26.5,122.76,26,122.74Z"/><path class="cls-3" d="M26.87,123.75l-.16-.35c-.08.07-.16.23-.32.22Z"/><polygon class="cls-3" points="27.09 123.81 26.87 123.75 26.93 123.88 27.09 123.81"/><path class="cls-3" d="M27.56,125.72a.74.74,0,0,1,.52.27,1.62,1.62,0,0,0-.31-.58C27.65,125.47,27.41,125.55,27.56,125.72Z"/><path class="cls-3" d="M27.16,125h0S27.21,125,27.16,125Z"/><polygon class="cls-3" points="29.3 127.52 29.34 127.45 29.28 127.49 29.3 127.52"/><path class="cls-3" d="M27.81,125.33c0-.17-.17-.18-.33-.17a1,1,0,0,1,.29.25C27.83,125.38,27.86,125.36,27.81,125.33Z"/><path class="cls-3" d="M28.15,126.76a2.17,2.17,0,0,0,0-.36C28.1,126.55,28,126.81,28.15,126.76Z"/><path class="cls-3" d="M27.14,125.15h0C27.08,125.24,27.11,125.21,27.14,125.15Z"/><path class="cls-3" d="M27.14,125.15a1,1,0,0,0,.34,0,.77.77,0,0,0-.28-.12A.3.3,0,0,1,27.14,125.15Z"/><path class="cls-3" d="M31.79,126.28c-.33.23-.87.13-.77-.42-.45-.1-1.31.89-1.68,1.59.14-.1.26-.2.67-.06.09-.23-.12-1,.35-.93.47.26.15.4.13.72.26-.47.94,0,1.44-.5l-.47-.17C31.55,126.43,31.78,126.44,31.79,126.28Z"/><path class="cls-3" d="M28.93,126.88l-.13-.09a1.44,1.44,0,0,1-.09.74.67.67,0,0,0,.57,0l-.43-.62Z"/><path class="cls-3" d="M28.37,126.26c.41-.18.78,0,1-.47-.3-.33-.47,0-.78-.11.53.49-.32,0-.18.54a1.07,1.07,0,0,1-.33-.23,2.7,2.7,0,0,1,.08.41v0h0c0-.06,0-.09,0,0h0l.15-.07c.06.22-.07.09-.15.07l0,0h0l.63.42A1.36,1.36,0,0,0,28.37,126.26Z"/><path class="cls-3" d="M27.79,122.11a.28.28,0,0,1-.06.08C27.8,122.19,27.84,122.18,27.79,122.11Z"/><path class="cls-3" d="M27.77,122.5c-.08,0-.24.07-.31-.09s.16-.13.27-.22c-.16,0-.47-.09-.43.29h.08a1.49,1.49,0,0,1-.19.94A4.1,4.1,0,0,0,27.77,122.5Z"/><path class="cls-3" d="M28.17,124.33l.54.33.1-.47-.17.15C28.5,124,28.33,124.25,28.17,124.33Z"/><polygon class="cls-3" points="29.18 127.71 28.77 127.93 29.49 127.8 29.18 127.71"/><polygon class="cls-3" points="29.7 128.28 29.38 128.5 29.69 128.51 29.7 128.28"/><path class="cls-3" d="M72.16,173.52l.29.18A1,1,0,0,0,72.16,173.52Z"/><path class="cls-3" d="M70.7,171.65l-.19.07C70.66,171.74,70.75,171.73,70.7,171.65Z"/><path class="cls-3" d="M41.67,143.15c-.13.43-.39,1-.07.7l.29-.33A.38.38,0,0,1,41.67,143.15Z"/><path class="cls-3" d="M56.75,157.88v-.19h-.52Z"/><path class="cls-3" d="M58.35,157l.17.66A2.2,2.2,0,0,0,58.35,157Z"/><path class="cls-3" d="M80.62,183.36l.58,0C80.83,182.92,80.82,183.26,80.62,183.36Z"/><path class="cls-3" d="M34.8,134.39a1.18,1.18,0,0,0,.14.59C35,134.62,35.12,134.22,34.8,134.39Z"/><path class="cls-3" d="M68,175.64c.18.1.31.12.38.05C68.21,175.58,68.07,175.54,68,175.64Z"/><path class="cls-3" d="M35.34,135.48a.81.81,0,0,0,0-.15.86.86,0,0,1-.41-.35C34.92,135.25,35,135.5,35.34,135.48Z"/><path class="cls-3" d="M109.76,220.3s0,.08,0,.12S109.81,220.35,109.76,220.3Z"/><path class="cls-3" d="M114.94,233.71c-.1-.09-.24-.26-.38-.42A1.26,1.26,0,0,0,114.94,233.71Z"/><path class="cls-3" d="M31.51,130.84c-.12-.11-.05,0,0,0Z"/><path class="cls-3" d="M32.34,129.15a.32.32,0,0,0,.2-.08A.53.53,0,0,1,32.34,129.15Z"/><path class="cls-3" d="M38.46,135.09h0C38.5,135,38.49,135,38.46,135.09Z"/><path class="cls-3" d="M31.51,130.52a.93.93,0,0,0,0,.24A.92.92,0,0,0,31.51,130.52Z"/><path class="cls-3" d="M31.37,130.67l-.06-.13C31.24,130.56,31.22,130.61,31.37,130.67Z"/><path class="cls-3" d="M31.67,131a.7.7,0,0,1-.13-.24c0,.05,0,.07,0,.08Z"/><path class="cls-3" d="M93.1,201.35s0,0,0,.07C93.44,201.55,93.34,201.46,93.1,201.35Z"/><path class="cls-3" d="M48,143.89h0l0,0Z"/><path class="cls-3" d="M48.92,144.56c-.71,0-.83-.29-1-.64L47.22,145Z"/><path class="cls-3" d="M75.81,177.88l-.18-.85c1.08.34,1.33,1,1.3.09-1.12.76-2-2.27-3.11-1.51l-.1-.58c.08.13.16.09.24.22-.12-1.18-1.22,0-1.87-1.09-.2-.42-.25-.78.07-.64l-.88-.57c-.16-.25.06-.34.22-.1l-1-1.11,0,0a6.6,6.6,0,0,1-1.12-.32c-.09-.42.23.07.3-.12l-.78-.45c.06-.48.76-.15,1.08.33.56-1.45-.7-.33-1.15-2.14l.63.51c.28-.88-.32-1.19-.51-2.19-.07.33.18,2.16-.65,1.65a1.17,1.17,0,0,0-.77-.77c.37-.3,0-.6-.42-1.06l.52-.36c-.55-.39-.77-.15-1.23-.27a1.16,1.16,0,0,1,.1-1.42c-.65-1-.11,1.11-1.07.12-.41-.91-1-1.28-2-1.94-.26-.66.37-.15.36-.45l-.77-.16c-.08-.12.07-.18.15-.21-.47-.27-.52.37-1.15-.15-.68.27-.23-1.9-1.46-2.18,0-.3.38-.15.52-.36a7.76,7.76,0,0,0-2.25-1.09l-.27-1c.07.84-.93.5-1.77.19a6.4,6.4,0,0,0,0,.79l-1-.75c0-.18.24-.22.57-.23l-.26-.08c-.09-.49.34-.54.81-.52l0,.6a1.8,1.8,0,0,0,1.26-.33.94.94,0,0,1-.39-.21c.13,0,.23,0,.26-.09s-.16-.09-.42-.14l.38-.66-.26.12-.67-1.54c-1.28-.46-2.72-.59-4.1-1.84.69,0,.72-.46,1.22-.82-.2.8,1.1.94,1.59,1.76-.25-.43,0-.52.2-.49l-1.52-1c.41-.28.07-.51-.05-1-.56.88-1.31-.57-2-.92.23-.25.6-.33,1.06.38,0-1.19-1.66-.21-1.73-1.32.13.16.16.27.34.23-.53-.19-1.08-1.25-.68-1.22l.13.16c-.76-1.14-2.59-3.25-3.38-2.89a6.92,6.92,0,0,1,1.09-.53c-1.24,0-2.5-.11-3.72-.12a11.72,11.72,0,0,0,1.18-1c.44-.36.82-.73,1.36-.39a2.78,2.78,0,0,0-.24-.49.67.67,0,0,0-.4-.26c0,.16-.63.89-.78.8.35-.85.14-.51.33-1.36,0,.23-1,.79-1.16.54.16-.07.86-.72,1-.71l-1.3.15c.26,0,.75-.57.9-.88-.13.19-.36-.49-.57-.57v.4c-.37-.73-1.71.36-2.16-.28.24-.07,1.25-.71,1.11-1.11-.56.22-2.64,1.09-3.42.82l.17-.31-.62-.18a20.62,20.62,0,0,1,3.73-.72c0-.4.25-.31-.05-.64.14-.31.51-.1.61,0l-.49-.93c-.49.46-1-.19-1.43.18l1.24.45c-.49.45-1.88.67-2.24,0,.09-.31,1-.63,1.17-.79-.23.07-.77-.26-.69-.42l.47,0c0-.47-1.1,0-.91-.74-.07-.16.35-.93,0-.71a10,10,0,0,1-2.78,2.41,5.84,5.84,0,0,1,.18-1.53c.29-.59,1.37-.56,1.62-1.06a1.1,1.1,0,0,1-.51.12c0-.24.48-.3.18-.55-.57.37-.45-.65-.56.22-.39-.18-.14-.4-.44-.73a2.1,2.1,0,0,1-1.8.44,1.17,1.17,0,0,0,.33-.39c-.44-.64-.46-1.16-.91-1.72.09-.16,0-.55.35-.62-.16,0-.4.07-.55-.1.18-.7.38.33.72-.36-.32.22-.78-.11-1.17-.21-.41.46.37.65.76.74a2.47,2.47,0,0,1-2.46.29c-.53-.33.26-.54.11-.54-.59-1-1.74.16-1.85-.94.18-.63.81-.68,1.06-1,.46.25.2.79.43,1l-.06-.48c.23,0,.54.18.53.42.18-.54-1.11-1.54-1.31-2.5-.24,0-.55-.1-.63.13l.22.17c-.17.47-.78,0-.72.37-.47-.1-1.09-.13-1.23-.68l.41-.46c-.13.12-.07.49.17.49-.35,0,.14-1.13-.63-.82l-.1.54c-.47-.09-1.25-.05-1.39-.53-.34.54.12,0-.23.74.51-.77.71.94,1.14,0-.42.77.09.67-.17,1.44.14-.13.2-.36.36,0a.77.77,0,0,1,.19,0v0s0,0,0,0a.81.81,0,0,1,.12-.35c.48-.13.85.35,1.17.37.06.24-.24.07-.33.3l.47,0c-.33.3-.2.93-.74.68l.29.39a.76.76,0,0,0,.45.82c.07.23.75.14.35.2l.69.42-.08.08c.42.62,1.54.74,1.45,1.92A1.15,1.15,0,0,1,36,136l-.25.31c.31.17.31,1,.71.86-.59.92.81,1.37,1,1.93l.41-.3a2.79,2.79,0,0,0,1,.78l.33-.3c.55.1.43,1,.88,1.54-.16.07-.23-.09-.23-.25-.28,1.25,1.62.85,1.5,1.87a.28.28,0,0,1,.27.34l-.05,0,.05.07a3.31,3.31,0,0,0,0,.34,1.09,1.09,0,0,0,0-.32,1.34,1.34,0,0,0,.48.33l-.31.36,0,0c0,.27.28,0,.49-.32a1,1,0,0,0,.39,0c-.5.61.54.26,0,1,.4-.14.88.62,1.61.18-.08.07-.08.15-.16.07.07.24.14.48.45.49l-.41.46.95-.12a1.56,1.56,0,0,0,0,.38.64.64,0,0,1-.06.3c-.09.14-.27.18-.63.11,1.41.62.9.69,2.18,1.16l-.34.2c.27.31,1.09.5,1,.9,0,1.19,2.78,3.64,3.73,5.93.61-1.08.29,1.19,1.05.7-.13.28,0,.64-.47.48,1,.79.8,1.7,1.92,1.88-.13.28-.48,0-.53.25.11,0,.43.15.38.35s-.29,0-.5-.07c.81.94,1.54.51,2.22.09.1.72.34.93,1,1-.06.33,0,.78-.6.24.24.36,1.36,2.3,1.88,1.94,0,.21.35.5.47.55a13.81,13.81,0,0,0,1.24,1.59l-.09-.27c.83-.18.63.51,1.18,1.06l-.07,0c.67,1.72.68.43,1.28,2.18l.31-.37c.9-.51.5,1.58,1.43,2.13v-.46c.62.22-.12,2.08.13,2.59,0,.15-.23-.06-.39-.15.44,1.51.6-.24,1.39.51-.14.37-.83.33-.42.94,0,.46,2.17,1,2.29,2.15.07-.33.13-.66.6-.39.55.54.54,2.23,1.61,2.27a.31.31,0,0,1-.07.23c.53.33,1.47,1.28,2,1.28-.94,1.45,2.91,2.36,1.72,3.29l1.2,1.37-.15.06a2.21,2.21,0,0,0,1.72,1.15c.09.27-.14.2-.22.24a3.6,3.6,0,0,0,2.45,2.24l-.29.42c.46.12.93,2.39,2.41,3.33a.34.34,0,0,1-.28,0c1.61,1.1,1.73,4.34,3.55,3.76l1.12.68c-.89-1.33.75-.3.57-1,.48.42.59,1.6,0,1.06v-.15c-.91.36,1,1.75.45,2.11,2,2.42,3.51,5.13,5.31,7.45l.36-.72.61.83c0,.31-.22.63-.65,0-.08.56,1,.75,1.17.66.66,1.3-1,.09-.75.45l.41.43v-.16c.53.19.8,0,1.32.74.24.52-.17.5,0,.69,0,0,0,.1.19.28l.76,1,.12-.76c.58.27.74,1,.87.1-.23,1.3,2.73,4,2.83,4.59A4.82,4.82,0,0,1,99.1,213c-.06-.27.35-.78.81-.07-1.22.59.52,1.57.2,2.7.12-.88,1.63,1.77,1.73.46.36.62-.36.35-.27,1,1.45,1,2.05,3.1,3.49,4.61.15-.08.14-.52.62-.34v1.4c.32.27,1-.33,1,.63,0-.17.12-.43.33-.25,1.88,3.7,5.74,6,7.07,10.26-.08-.64.18-.37.45-.05-.11-.26.34-.26.49-.45l.57,1.76c.71-.17,1.2,1.42,1.8,1.17l-.43-.36c1,.11.64-1.82,1.45-2.33-1.17-.11-.37-2.46-2.15-2.75,0-.35.4,0,.47-.25-.53,0-.85-.28-1.18-1h.13c-1.41-1.61-1.67-2.57-3-4.61l-.25.44a2,2,0,0,1-.29-.88c-.92,0,.88,1.15-.07,1.22.32-1.13-2.26-2.84-1.7-3.88-.49-.62-.28.52-.77-.1l.1-.35-.42.08a.84.84,0,0,1,0-1c.05.11.28.23.38.32-.15-.74-1.28-1.4-1.34-1.65l.34.7c-1.57-1.51-2.92-3.81-4.69-5.07l-.07.26c-1.32-1-.61-1.14-1.85-2.39l.08,0a2.31,2.31,0,0,1-1-.83c.48.19-.13-1,.46-.69-1.42-1.07-.8-.45-2.16-.82l.12-.44a1.64,1.64,0,0,1-1.28-.63c.7.36.09-.79.92-.42-.52-1.94-2.34-1.62-1.95-3-1.32,0,.56,1.59.09,1.36,0,.51-1-.07-1.31-.58s.4-1.59-.54-2.73c.09.12.15.08.24.19-.14-.59-1-.62-1-1.41-.72.09-.52-.71-1.2-.31l1,1c-.64-.47-1.8-.46-2.24-1.72a2,2,0,0,1,.83.27c0-.44-.56-.46-.62-.91.68-.41,1.16,1.17,2.14,1.44,0-.51-1.41-.86-.49-1.06-1.21.21-.8-1.22-2.07-1.49l.41-.24a1.82,1.82,0,0,1-.71-.43l.81,0c-.91-.3-.62-1.5-1.33-1.92,1,1.25-.21.63,0,1.38-1.74-1.17.24-1.66-1.34-3.27.24.19.5,1.06,0,.83a3.06,3.06,0,0,1-.37-1.3c-1-1.1-.24.48-.86.16.13-.75-.64-.42-1.19-.81l.37-.31c-.82-1.51-1,.28-1.72-1.14l.92.08-.63-.51.53-.21c-.86-.42-.94-.7-1.35-1.45-.14.36-.75.45-1.23-.12-.1-.58.53-.06-.18-.85.38,0,.84,0,.78.61.15-.06.38,0,.54-.06-.09-.64-.81-1.13-1-1.43a1.23,1.23,0,0,1,.17.4L83.13,188c0-.3.22-.24.45-.18-.24-.21-.54-.24-.86-.58.38-.15.67-.42,1.22,0l-1.25-.87c.07-.18-.11-.88.12-.82-.33-.78-1.84-1.09-2.28-2.12a.62.62,0,0,1-.4-.18c-.57-.85-.76-1.84-1.92-2.45l.11-1c-.71-.63-.1,1.27-1.29.21-.86-.72.21-.69.12-1.12-.62-.21-1.78-.51-2-1.66C75.49,177.39,75.57,177.66,75.81,177.88ZM68.32,169c.22.11.74.27.62.57C68.35,169.73,68.44,169.41,68.32,169ZM56.4,156c.23,0,.33.28.37.62A1.13,1.13,0,0,1,56.4,156ZM32.94,132h0C33,132.32,33,132.2,32.94,132Zm-.18-.56a.2.2,0,0,0-.18.1c.12,0,.21.05.27.18C32.92,131.61,32.94,131.5,32.76,131.44Zm59.89,74.48,0-.24C93,206,92.83,205.93,92.65,205.92Z"/><path class="cls-3" d="M58.16,157.12a.63.63,0,0,1-.14.24C58.13,157.38,58.21,157.32,58.16,157.12Z"/><path class="cls-3" d="M80.52,183.35v0l.09,0Z"/><path class="cls-3" d="M41.32,135.65a.58.58,0,0,1-.06.33A.23.23,0,0,0,41.32,135.65Z"/><path class="cls-3" d="M30.28,129.64l.32.2c-.13-.12-.09-.23-.08-.35C30.44,129.57,30.35,129.72,30.28,129.64Z"/><path class="cls-3" d="M30.65,125.37c-.08,0-.08-.08-.16-.08l-.16.15C30.48,125.6,30.72,125.61,30.65,125.37Z"/><path class="cls-3" d="M31.31,128.39c.29-.27.05-.36-.17-.51l0,0C30.69,128.21,31,128.3,31.31,128.39Z"/><path class="cls-3" d="M31.1,127.84a.52.52,0,0,1-.16-.17C30.75,127.78,31,127.77,31.1,127.84Z"/><path class="cls-3" d="M32.11,131.05c0-.15-.45.27-.37.11C31.26,131.38,32.72,131.39,32.11,131.05Z"/><polygon class="cls-3" points="32.22 127.4 31.88 127.78 32.28 127.64 32.22 127.4"/><path class="cls-3" d="M33.17,129.17l-.15-.39a.2.2,0,0,1-.2,0C33,129,33.06,129.27,33.17,129.17Z"/><path class="cls-3" d="M32.82,128.8c-.07-.11-.15-.2-.26-.2A.81.81,0,0,0,32.82,128.8Z"/><polygon class="cls-3" points="32.67 127.74 32.66 127.89 32.81 128.14 32.67 127.74"/><path class="cls-3" d="M35.78,132.59l.38.25a.16.16,0,0,0,0-.31C36,132.52,35.86,132.43,35.78,132.59Z"/><path class="cls-3" d="M36,130.71c0,.16-.09.23-.17.38l.49-.37Z"/><path class="cls-3" d="M36.92,131.61c.16-.07.78.19.4-.22C37.16,131.46,36.78,131.21,36.92,131.61Z"/><polygon class="cls-3" points="40.42 137.23 40.35 137.15 39.57 137.79 40.42 137.23"/><path class="cls-3" d="M45.93,140.24c-.14-.55-.57.3-.62-.26-.26.06,0,.46-.19.49C45.51,140.55,45.5,140.77,45.93,140.24Z"/><path class="cls-3" d="M45.12,140.47a.78.78,0,0,0-.22,0A.7.7,0,0,0,45.12,140.47Z"/><polygon class="cls-3" points="115.94 235.82 116.17 236.44 116.18 235.92 115.94 235.82"/><path class="cls-3" d="M117.27,236.29l-.41.51.69-.07C117.44,236.64,117.22,236.46,117.27,236.29Z"/><path class="cls-3" d="M68.25,166.86l-.15.06c-.07.18,0,.3.17.55Z"/><polygon class="cls-3" points="73.14 173.73 73.06 173.61 72.77 174.19 73.14 173.73"/><path class="cls-3" d="M78.13,178.79c-.16-.24-.47-.43-.63-.67C78,178.55,77.62,179.3,78.13,178.79Z"/><path class="cls-3" d="M535.2,277.39c.44.42,1.09-1.12,1.32-1.33C535.47,275.88,535,277.78,535.2,277.39Z"/><polygon class="cls-3" points="524.85 275.75 525.34 275.25 523.26 275.96 524.85 275.75"/><path class="cls-3" d="M517,271.14c-.67,2.88,3.09,1.26,4,2.95l-.09.69,1.77-1.6C520.75,272.5,517.77,272.52,517,271.14Z"/><path class="cls-3" d="M515.8,263.4c-.29,1.1-1.38.29.82.87a1.7,1.7,0,0,1,0-.35A3.37,3.37,0,0,1,515.8,263.4Z"/><path class="cls-3" d="M516.58,263.92c.87.42-.08-1.11,0,0Z"/><path class="cls-3" d="M512.41,262.24,514,262c.1-.7-.8-1.39-.2-1.59C512.4,260.25,512.31,261,512.41,262.24Z"/><path class="cls-3" d="M510.34,263.42l.78,0C511.15,263.1,511.05,262.93,510.34,263.42Z"/><path class="cls-3" d="M512.76,263.33l-1.64.06c-.07.49-.52,1.29.71.05C511.31,264.11,512,263.55,512.76,263.33Z"/><path class="cls-3" d="M513.23,264.1c.31.89.91,1.69-.69,1.89C514.84,266.87,515.53,265,513.23,264.1Z"/><path class="cls-3" d="M515.09,273.43l.41,1.19,1.18-.4C516.09,274.42,515.48,272.64,515.09,273.43Z"/><path class="cls-3" d="M506.31,257a15.15,15.15,0,0,0-.74,2.32l1.16-.13C506.52,258.6,505.92,257.82,506.31,257Z"/><path class="cls-3" d="M505.57,259.33l-1.73.19C504.86,260.25,505.31,259.94,505.57,259.33Z"/><polygon class="cls-3" points="508.57 266.02 511.65 265.3 508.17 265.83 508.57 266.02"/><polygon class="cls-3" points="501.72 254.26 503.1 253.46 500.82 254.57 501.72 254.26"/><path class="cls-3" d="M498.52,252.69c1.09-.7.28-2.09,1.18-2.39a5.5,5.5,0,0,0-3.24.53C497.39,250.8,498.05,251.33,498.52,252.69Z"/><path class="cls-3" d="M494.73,251.33a7.42,7.42,0,0,0,1.73-.5A4.24,4.24,0,0,0,494.73,251.33Z"/><path class="cls-3" d="M501.92,258.06a2.57,2.57,0,0,0-.09-2l-.37,1.74Z"/><path class="cls-3" d="M501.45,257.82v-.06c-.5-.33-.84-.57-1-.68Z"/><path class="cls-3" d="M502,258.14l-.12-.08C501.89,258.23,501.89,258.3,502,258.14Z"/><path class="cls-3" d="M506.16,262.86c-1.19.4-3.18.42-2.47,2.5C504.78,264.65,504.37,263.47,506.16,262.86Z"/><path class="cls-3" d="M501.57,260.31l1.1,1.08c.2-.4.29-1.1.88-1.3Z"/><polygon class="cls-3" points="500.67 260.41 501.57 260.31 501.17 259.91 500.67 260.41"/><path class="cls-3" d="M496.14,254a3,3,0,0,1-2.31-.28,7,7,0,0,0,2,1.73C496.17,255,497,254.39,496.14,254Z"/><path class="cls-3" d="M498.65,256c-.06,0-.12,0-.17,0C498.48,256.16,498.52,256.23,498.65,256Z"/><path class="cls-3" d="M487.07,249.77l-.05.33.17-.24Z"/><path class="cls-3" d="M495.77,255.77c.39.61.92.44,1.5.17a4.86,4.86,0,0,1-1.47-.51C495.63,255.61,495.55,255.74,495.77,255.77Z"/><path class="cls-3" d="M492.45,250.92a7.11,7.11,0,0,0,.49,1.36C492.93,251.66,492.77,250.6,492.45,250.92Z"/><path class="cls-3" d="M498.52,255.47s.09,0,.12,0C498.64,255,498.58,255.2,498.52,255.47Z"/><path class="cls-3" d="M498.52,255.47a4.68,4.68,0,0,0-1.25.47,3.53,3.53,0,0,0,1.21.05A2.41,2.41,0,0,1,498.52,255.47Z"/><path class="cls-3" d="M479.57,258c.88-1.3,3.07-1.71,3.48.47,1.83-.3,3.61-5.23,4-8.35-.38.57-.7,1.11-2.43,1.18,0,1,1.82,3.37,0,4-2.09-.27-1.1-1.28-1.51-2.47-.28,2.1-3.57,1.22-4.64,3.92l2,0C480.26,257.08,479.36,257.39,479.57,258Z"/><path class="cls-3" d="M489.37,251.64l.62.14a5.77,5.77,0,0,1-.75-2.89,2.67,2.67,0,0,0-2.05,1l2.47,1.68Z"/><path class="cls-3" d="M492.35,253.13c-1.27,1.24-2.89,1.14-3.05,3.19,1.6.79,1.79-.61,3.08-.72-2.69-1.07,1.19-.41-.11-2.29a4.82,4.82,0,0,1,1.56.39,8.27,8.27,0,0,1-.89-1.42v.13h0l0,0c0,.25,0,.38-.09.2,0,0-.05,0-.07,0a3,3,0,0,1-.43.5c-.54-.72.11-.45.43-.5a1.75,1.75,0,0,0,.16-.2v0l-2.95-.63A5.51,5.51,0,0,0,492.35,253.13Z"/><path class="cls-3" d="M500.52,267.77a.82.82,0,0,1,.12-.39C500.38,267.47,500.25,267.55,500.52,267.77Z"/><path class="cls-3" d="M500,266.28c.3-.1.79-.6,1.29-.11.25.74-.41.71-.67,1.21.58-.19,1.86-.34,1.16-1.7l-.29.1c-.71-1.09-.92-3.68-.63-3.78A15.21,15.21,0,0,0,500,266.28Z"/><path class="cls-3" d="M495.89,260l-2.49-.47.32,1.89.39-.8C495.11,261.64,495.4,260.55,495.89,260Z"/><polygon class="cls-3" points="487.26 248.9 488.44 247.5 485.96 249 487.26 248.9"/><polygon class="cls-3" points="484.46 247.53 485.35 246.23 484.16 246.63 484.46 247.53"/><path class="cls-3" d="M294.25,159.77l-1.08-.11A3,3,0,0,0,294.25,159.77Z"/><path class="cls-3" d="M300.35,163.43l.54-.58C300.39,163.06,300.12,163.26,300.35,163.43Z"/><path class="cls-3" d="M418.32,209.4c-.15-1.78,0-4.32-.78-2.73l-.59,1.65A1.56,1.56,0,0,1,418.32,209.4Z"/><path class="cls-3" d="M355.42,184.8l.1.67,1.66-.94C356.64,184.63,356,184.71,355.42,184.8Z"/><path class="cls-3" d="M351,190.45l-1.08-1.91A6.14,6.14,0,0,0,351,190.45Z"/><path class="cls-3" d="M259.68,141.84l-1.87.94C259.37,143.67,259.12,142.52,259.68,141.84Z"/><path class="cls-3" d="M456.6,232.11a4.74,4.74,0,0,0-1.39-2C455.64,231.5,455.64,233.21,456.6,232.11Z"/><path class="cls-3" d="M305.81,145.4c-.68,0-1.07.14-1.25.48C305.24,145.94,305.71,145.83,305.81,145.4Z"/><path class="cls-3" d="M453,228.83c.05.23.14.38.2.59a3.63,3.63,0,0,1,2,.69C454.9,229.08,454.35,228.24,453,228.83Z"/><path class="cls-3" d="M138.34,69.88a2.06,2.06,0,0,1-.17-.33C138,69.73,138.14,69.82,138.34,69.88Z"/><path class="cls-3" d="M111.48,34.28A9.67,9.67,0,0,1,113,35,2.93,2.93,0,0,0,111.48,34.28Z"/><path class="cls-3" d="M474,240.61c.63.23.19-.12,0,0Z"/><path class="cls-3" d="M473.38,248.09a1.45,1.45,0,0,0-.64.59A1.81,1.81,0,0,1,473.38,248.09Z"/><path class="cls-3" d="M442,234.79l0,0C441.91,235.15,441.92,235.08,442,234.79Z"/><path class="cls-3" d="M474.48,241.78a3.34,3.34,0,0,0-.47-.87A3.18,3.18,0,0,0,474.48,241.78Z"/><path class="cls-3" d="M474.77,241a5.85,5.85,0,0,0,.42.43C475.4,241.24,475.43,241,474.77,241Z"/><path class="cls-3" d="M473.17,240.23a2.55,2.55,0,0,1,.84.68c-.06-.16-.05-.27,0-.3C473.83,240.53,473.58,240.43,473.17,240.23Z"/><path class="cls-3" d="M206,103.8a2.07,2.07,0,0,1-.09-.24C204.79,103.71,205.2,103.82,206,103.8Z"/><path class="cls-3" d="M394.15,216c.05,0,.09,0,.13,0l-.08-.12Z"/><path class="cls-3" d="M390.64,215.46c2.29-1.14,2.86-.51,3.56.42l1.53-4.84Z"/><path class="cls-3" d="M279.24,151.65l1.24,2.5c-3.7.79-5-1-4.22,2,3-4.49,8.1,4.06,11.08-.43l.76,1.75c-.36-.27-.58,0-.92-.29,1.29,3.72,3.86-2.26,6.81.33.95,1,1.37,2.18.26,2.27l3.25.35c.69.52,0,1.22-.65.7l4.15,1.91-.11.12a20.37,20.37,0,0,1,3.81-.91c.62,1.25-.78.2-.86.93l2.83.14c.19,1.72-2.29,1.84-3.7.79-.66,5.83,2.49-.12,5.31,5.14l-2.4-.6c-.2,3.41,2,3.38,3.33,6.38,0-1.18-2.25-6.85.78-6.64.47.74,1.25,1.42,3.07,1.22-.95,1.66.54,2,2.15,2.79l-1.38,2.13c2.06.34,2.57-.85,4.14-1.26,1.75,1.31,1.16,3.23.77,4.92,2.81,2.09-.5-3.93,3.3-2.28,2,2.29,4.3,2.41,8,2.84,1.32,1.77-1.08,1.16-.81,2.15l2.56-.84c.36.26-.07.72-.29,1,1.7.08,1.37-2.13,3.78-1.53,1.95-2.09,2.18,6,6.31,4.71.27,1-1.08,1.17-1.38,2.13,4.54.22,3.76.43,8-.33l1.61,2.85c-.84-2.68,2.58-3.3,5.52-3.74a24.48,24.48,0,0,0-.49-2.71l3.89.68c.17.58-.58,1.15-1.64,1.76a8.71,8.71,0,0,0,.89-.18c.68,1.47-.65,2.39-2.18,3.14-.14-.66-.26-1.35-.37-2-1.57.87-3.16,1.91-3.74,3.29a2.53,2.53,0,0,1,1.39,0c-.41.24-.73.49-.76.76s.59,0,1.44-.25l-.69,2.87.74-.87,3.31,4c4.43-.72,9.14-2.83,14.49-1.07-2.22,1.1-1.95,2.78-3.24,4.86,0-3-4.25-1.18-6.45-3.07,1.15,1,.28,1.83-.25,2l5.59.51c-1.11,1.68.18,1.84.91,3.23,1.12-3.94,4.61-.38,7-.4-.55,1.22-1.66,2.15-3.69.6.91,4,5.45-2.22,6.55,1.35-.55-.28-.74-.63-1.29-.16,1.84-.31,4.42,2.27,3.12,2.86l-.54-.28c3.31,2.46,10.78,6.27,13,3.67a32.69,32.69,0,0,1-3.05,3.71c4-2.06,8-4.08,12-6.16a43.14,43.14,0,0,0-2.94,5.43,14.22,14.22,0,0,1-1.73,2.66,2.84,2.84,0,0,1-2.38,1c.16.21.33.43.53.65a5.44,5.44,0,0,0,.65.58,2.74,2.74,0,0,0,1.86.38c-.2-.59,1.07-4.21,1.77-4.12-.07,3.69.21,2.12.73,5.59-.3-.89,2.66-4.42,3.56-3.73-.49.5-2.17,3.92-2.76,4.12l4.66-2.44c-1,.34-2,3.2-2.09,4.61.19-.91,2.06,1.28,2.93,1.27l-.51-1.49c2.4,2.17,5.84-3.85,8.44-2.07-.79.61-3.65,4.43-2.55,5.71,1.78-1.6,8.31-7.86,11.59-8l-.19,1.4,2.59-.22a85.55,85.55,0,0,1-12.89,8.1c.51,1.48-.48,1.49,1.11,2.28-.07,1.37-1.76,1.12-2.25.92l3.18,2.75c1.17-2.4,4.07-.73,5-2.72l-5.26.13c1.17-2.39,6-5.23,8.33-3.36.11,1.29-2.86,3.82-3.25,4.62.79-.6,3.28-.12,3.19.58l-1.79.61c.91,1.68,4.07-1.72,4.49,1.46.5.48,0,4,.92,2.67.57-3.18,5.09-11.42,6.87-13,.1.3,1.61,4.29,1.53,6-.23,2.62-4.29,4.07-4.5,6.32a3.91,3.91,0,0,1,1.75-1.2c.3.89-1.38,1.8.11,2.29,1.58-2.2,2.6,1.77,1.78-1.61,1.69.09,1.11,1.29,2.7,2.07.39-1.79,4.35-4.34,6.05-4.24a4.39,4.39,0,0,0-.64,1.92c2.55,1.77,3.37,3.66,5.86,5.12-.1.7.7,2.08-.39,2.79.6-.2,1.39-.8,2.19-.41.32,2.88-1.9-.68-2.17,2.4.88-1.3,3.07-.72,4.66-.93.88-2.29-2.3-1.87-3.89-1.66a9.92,9.92,0,0,1,8.72-4.64c2.49.48-.18,2.39.42,2.19,3.6,2.76,6.24-3.13,8.26.83.22,2.58-2.07,3.7-2.55,5.19-2.09-.28-1.92-2.67-3.1-3.26l.9,1.69c-.89.3-2.29.11-2.59-.78.11,2.28,6.39,4.13,8.51,7.4.89-.31,2.18-.42,2.17-1.41l-1.09-.29c0-2,3-1,2.17-2.41,1.88-.31,4.26-1.12,5.57.76l-.88,2.29c.32-.63-.45-1.93-1.32-1.58,1.28-.5,1.1,4.44,3.51,2.16l-.41-2.18c1.89-.32,4.77-1.63,6,0,.48-2.5-.5,0-.23-3.06-.77,3.59-4-2.49-4.26,1.6.48-3.49-1.31-2.36-1.43-5.64-.36.72-.23,1.64-1.37.52a3.55,3.55,0,0,1-.65.44.53.53,0,0,1-.06-.1l0,.12c-.12.07-.14.09,0,0a2.77,2.77,0,0,1,.07,1.45c-1.59,1.2-3.68-.08-4.88.33-.6-.79.8-.6.79-1.59l-1.78.61c.78-1.6-.63-3.78,1.76-3.6l-1.64-1c-.49-1.44-1.65-2.57-2.86-2.41-.6-.79-3,.55-1.6-.26l-3.19-.57.2-.4c-2.49-1.7-6.83-.55-8.19-5.05a4.77,4.77,0,0,1-3.49-1.45l.49-1.5c-1.39-.19-2.6-3.29-3.89-2.18.86-4.28-5-3.94-6.61-5.72l-1.08,1.69a11.33,11.33,0,0,0-5-1.43l-.79,1.6c-2.19.42-3.11-3.26-5.5-4.44.49-.49,1,0,1.2.59-.74-5.06-7.27-.84-8.3-4.81a1.13,1.13,0,0,1-1.5-.89.3.3,0,0,0,.21,0,1,1,0,0,0-.25-.17c-.12-.42-.22-.89-.39-1.32a4.13,4.13,0,0,0,.25,1.25,5.77,5.77,0,0,0-2.27-.51l.65-1.82a.59.59,0,0,0-.19,0c-.35-1-1,.45-1.36,1.91a4.43,4.43,0,0,0-1.52.45c1-3-2.39-.19-1.52-3.48-1.28,1.11-4.19-1-6.25,1.66.19-.39.09-.69.48-.49-.6-.8-1.2-1.59-2.39-1.18l.88-2.29-3.37,1.81a13.35,13.35,0,0,0-.31-1.35,2.41,2.41,0,0,1,0-1.1c.16-.63.71-1.1,1.91-1.48-5,.43-3.41-.73-7.84,0l.93-1.27c-1.1-.57-3.88.25-3.87-1.25-.92-4-11.7-7.25-16.48-13.23-1.12,4.69-1.84-3.45-3.87-.5.18-1.15-.37-2.18,1.11-2.42-3.69-.9-3.87-4.24-7.56-2.89.19-1.16,1.48-1,1.49-1.74-.38.05-1.48.24-1.48-.52s.92-.52,1.66-.64c-3.31-1.71-5.33,1-7.14,3.61-.89-2.24-1.81-2.53-4-1.42-.05-1.22-.46-2.71,1.73-1.87-1-.78-6.11-5.29-7.5-3.17,0-.76-1.48-1.07-1.92-1a31.68,31.68,0,0,0-5.16-3.15l.48.76c-2.5,2.07-2.4-.61-4.58-1.45l.21-.24c-3.47-4.56-2.5-.23-5.76-5L333,167.1c-2.47,3.29-2.8-4.4-6.2-4.57l.4,1.48c-2.13.38-1.22-7.12-2.4-8.4-.14-.49.78-.2,1.35-.18-2.56-4.27-1.74,1.87-4.84.74.16-1.46,2.38-2.56.62-3.87-.4-1.49-7.67.59-9-3.13.05,1.22.1,2.44-1.59,2.36-2.19-.84-3.45-6.51-6.89-4.74a1.19,1.19,0,0,1,.05-.91c-1.95-.16-5.67-1.67-7.47-.67,1.87-6.49-11.1-2.74-8-8l-4.87-2.44.44-.47c-2.81-2.08-4.6-1.44-6.38-.8-.49-.76.3-.95.52-1.19-3.78-3.6-4.34-3.63-9.54-3.16l.61-1.92c-1.57.41-4.81-6.34-10.26-6.85a1.33,1.33,0,0,1,.91-.49c-6-.81-8.86-11.43-14.22-6.27l-4.08-.33c3.86,2.87-2.17,2.32-1.07,4.34-1.83-.58-3.12-4.3-.94-3.46l.14.49c2.6-2.8-4.48-4.12-3.1-6.25C229,103.89,222.1,97.51,214.56,93L214,96l-2.57-1.69c-.36-1,.2-2.5,2-1.3-.17-2-3.87-.65-4.24-.14-3.12-3.16,3.15-2.08,2-2.8l-1.65-.71.18.5c-1.85.3-2.59,1.32-4.8-.13-1.15-1.34.16-2-.36-2.4.11-.17,0-.37-.82-.58l-3.23-2.15.19,2.75c-2.05.12-3.09-1.92-2.84,1.21-.27-4.77-11.78-8.48-12.55-10.36-2.91.24-5-1-7.39-2.62.39.77-.52,3.22-2.56,1.67,3.47-4.12-2.86-4.32-2.71-8.64.31,3.1-6.55-3.08-5.87,1.47-1.61-1.43.88-1.78.12-3.66-5.38-.75-8.93-6.72-14.66-9.24-.43.55-.06,2-1.74,2.22l-1.09-4.66c-1.24-.32-3,2.91-3.73-.3,0,.66,0,1.66-.88,1.44-8.84-9-22.94-10.08-30.45-21.8.77,2-.26,1.56-1.4,1,.56.7-.88,1.48-1.21,2.38l-3.17-4.87c-2.13,1.8-4.89-2.63-6.62-.73l1.65.43c-3.37,1.46-.65,7.22-2.83,10.34,3.8-1.69,3.08,7.53,9,5.38.38,1.12-1.27.68-1.3,1.68,1.7-.9,2.93-.58,4.53,1.2l-.42.22c5.72,2.86,7.29,5.62,13,10.14l.48-1.89a4.91,4.91,0,0,1,1.58,2.43c3-1.57-3.67-2.31-.7-4.21-.14,4.32,9.38,5.5,8.41,9.95,2,1.21.48-2.23,2.52-1l0,1.33,1.28-1a3,3,0,0,1,.71,3.55c-.27-.29-1.07-.3-1.46-.43,1,2.21,5.16,2.45,5.53,3.19l-1.61-1.77c6.16,2.29,12.23,7.59,18.84,8.67l0-1c5,1,2.82,2.76,7.74,4.74l-.27.08a5.48,5.48,0,0,1,4,.89c-1.67.23,1.15,3-.93,3.11,5.36,1.08,2.91.1,7.52-1l0,1.66c1.67-.56,2.11-1.12,4.56-.14-2.49,0,.33,2.78-2.59,3,3.15,5.54,8.69,1.29,8.52,6.62,4.22-2.25-3-4.34-1.33-4.38-.36-1.75,3.33-1.59,4.62-.37,1.47,1,0,6,3.83,8.15-.37-.24-.55,0-.92-.22.91,1.72,3.51.41,4.42,2.88,2.22-1.56,2.21,1.44,4.06-1.11l-3.87-1.4c2.4.44,6.11-1.65,8.49,1.79a6.59,6.59,0,0,1-2.87.56c.5,1.36,2.15.54,2.67,1.94-1.86,2.55-4.6-1.88-7.93-1,.36,1.75,5.17.37,2.39,2.69,3.71-2.84,3.49,2.66,7.74,1.3l-1.12,1.53c.56,0,1.86-.29,2.59.18l-2.59,1.32c3.14-.58,3.13,3.92,5.71,4.1-4.24-2.39.19-2.51-.91-4.72,6.46.83.52,6,6.79,8.57-.92-.23-2.39-2.69-.72-2.73a8.21,8.21,0,0,1,2.19,3.69c4.05,1.9.38-2,2.6-2.06.16,2.74,2.36.29,4.41.63l-.94,1.66c3.77,3.61,3.16-2.77,6.37.8l-3,1.33,2.4.6-1.51,1.63c3-.09,3.53.67,5.42,2.47a2.65,2.65,0,0,1,4-1.76c.76,1.75-1.65,1.14,1.24,2.5-1.22.68-2.65,1.58-3-.64-.43.47-1.21.68-1.65,1.14.77,2,3.44,2.34,4.45,2.9a2.4,2.4,0,0,1-.86-1l5.32,0c.27,1-.52,1.2-1.29,1.4.91.29,1.91-.14,3.18.4-1.09,1.17-1.82,2.6-3.87,2.25l4.67.72c-.08.73,1,2.74.25,2.94,1.65,2,6.68.4,8.87,3.06a1.93,1.93,0,0,1,1.44-.11c2.45,1.83,3.83,4.83,8,4.79l.37,3.44c2.76.86-.63-4.42,4-3,3.32.9-.12,2.68.5,3.93,2.14-.38,6-1.41,7.56,2.08C280.64,152.7,280.16,151.94,279.24,151.65ZM310,168c-.78,0-2.56.41-2.42-.82C309.29,165.69,309.28,166.9,310,168ZM358,190.55c-.75.29-1.27-.36-1.66-1.43A2.75,2.75,0,0,1,358,190.55Zm109,47.78-.09,0C466.34,237.2,466.52,237.64,467,238.33Zm1.52,1.83a.75.75,0,0,0,.5-.63c-.38.34-.83.12-1.26-.29C467.63,239.76,467.71,240.2,468.5,240.16ZM204,87.74l.28.73C202.77,88.26,203.36,88,204,87.74Z"/><path class="cls-3" d="M351.51,189.81a2.72,2.72,0,0,1,.27-1.05C351.39,188.91,351.2,189.23,351.51,189.81Z"/><path class="cls-3" d="M260,141.67s0,0-.08-.07a1.2,1.2,0,0,0-.26.24Z"/><path class="cls-3" d="M430.48,236.86a2.22,2.22,0,0,1-.27-1.3A.91.91,0,0,0,430.48,236.86Z"/><path class="cls-3" d="M480.35,243.28l-1.48-.29c.64.27.65.75.79,1.19C479.86,243.78,480,243.08,480.35,243.28Z"/><path class="cls-3" d="M485.15,259.73c.3-.1.4.2.7.09l.39-.79C485.44,258.63,484.55,258.94,485.15,259.73Z"/><path class="cls-3" d="M478.31,249.44c-.7,1.44.34,1.42,1.36,1.67a.54.54,0,0,1-.15-.09C480.9,249.22,479.6,249.33,478.31,249.44Z"/><path class="cls-3" d="M479.9,251.17a2,2,0,0,1,.82.43C481.27,250.88,480.49,251.25,479.9,251.17Z"/><path class="cls-3" d="M471.48,240.66c.2.6,1.29-1.63,1.19-.93C474.16,238.23,468.69,240.29,471.48,240.66Z"/><polygon class="cls-3" points="476.36 254.42 477.04 252.53 475.76 253.63 476.36 254.42"/><path class="cls-3" d="M470.25,249.2l1.11,1.28a.71.71,0,0,1,.71-.37C471.25,249.56,470.51,248.67,470.25,249.2Z"/><path class="cls-3" d="M472.07,250.11a1.51,1.51,0,0,0,1.28.36A3.31,3.31,0,0,0,472.07,250.11Z"/><polygon class="cls-3" points="474.17 253.84 473.97 253.25 473.06 252.56 474.17 253.84"/><path class="cls-3" d="M455.57,240.25l-1.79-.38a.65.65,0,0,0,.4,1.19C454.78,240.86,455.47,241,455.57,240.25Z"/><path class="cls-3" d="M457.41,247.6a3.41,3.41,0,0,1,.09-1.69l-1.28,2.1Z"/><path class="cls-3" d="M452.72,245.54c-.49.51-3.17.43-1.18,1.4C452,246.45,453.83,246.83,452.72,245.54Z"/><polygon class="cls-3" points="431.53 229.67 431.93 229.86 433.9 226.34 431.53 229.67"/><path class="cls-3" d="M406.64,226.4c1.3,1.87,1.67-1.91,2.68.07.9-.58-.82-1.62,0-2.08C407.76,224.63,407.47,223.81,406.64,226.4Z"/><path class="cls-3" d="M409.34,224.39a5.3,5.3,0,0,0,.86-.21A2.11,2.11,0,0,0,409.34,224.39Z"/><polygon class="cls-3" points="106.66 28.99 105.47 27.33 105.83 29.1 106.66 28.99"/><path class="cls-3" d="M102.07,29.78l.91-2.44-2.13,1.45C101.27,28.9,102.09,29.12,102.07,29.78Z"/><path class="cls-3" d="M311.83,175.09l.43-.46c.09-.73-.26-1-1-1.52Z"/><polygon class="cls-3" points="290.95 160.77 291.31 161.03 291.77 158.62 290.95 160.77"/><path class="cls-3" d="M271.14,152.71c.7.52,1.84.58,2.54,1.1C271.84,153.23,272.39,150.09,271.14,152.71Z"/></svg>